<?xml version="1.0" encoding="utf-8"?>
<svg version="1.1" xmlns:xlink="http://www.w3.org/1999/xlink" width="75px" height="30px" xmlns="http://www.w3.org/2000/svg">
  <g transform="matrix(1 0 0 1 -2916 -1841 )">
    <path d="M 2917 1856  A 14 14 0 0 1 2931 1842 L 2976 1842  A 14 14 0 0 1 2990 1856 A 14 14 0 0 1 2976 1870 L 2931 1870  A 14 14 0 0 1 2917 1856 Z " fill-rule="nonzero" fill="#dfdfdf" stroke="none" fill-opacity="0" />
    <path d="M 2916.5 1856  A 14.5 14.5 0 0 1 2931 1841.5 L 2976 1841.5  A 14.5 14.5 0 0 1 2990.5 1856 A 14.5 14.5 0 0 1 2976 1870.5 L 2931 1870.5  A 14.5 14.5 0 0 1 2916.5 1856 Z " stroke-width="1" stroke="#090909" fill="none" stroke-opacity="0.654901960784314" />
  </g>
</svg>