<?xml version="1.0" encoding="utf-8"?>
<svg version="1.1" xmlns:xlink="http://www.w3.org/1999/xlink" width="73px" height="73px" xmlns="http://www.w3.org/2000/svg">
  <g transform="matrix(1 0 0 1 -1873 -470 )">
    <path d="M 1874 472  A 1 1 0 0 1 1875 471 L 1944 471  A 1 1 0 0 1 1945 472 L 1945 541  A 1 1 0 0 1 1944 542 L 1875 542  A 1 1 0 0 1 1874 541 L 1874 472  Z " fill-rule="nonzero" fill="#ffffff" stroke="none" />
    <path d="M 1873.5 472  A 1.5 1.5 0 0 1 1875 470.5 L 1944 470.5  A 1.5 1.5 0 0 1 1945.5 472 L 1945.5 541  A 1.5 1.5 0 0 1 1944 542.5 L 1875 542.5  A 1.5 1.5 0 0 1 1873.5 541 L 1873.5 472  Z " stroke-width="1" stroke-dasharray="3,1" stroke="#797979" fill="none" stroke-opacity="0.894117647058824" stroke-dashoffset="0.5" />
  </g>
</svg>