<?xml version="1.0" encoding="utf-8"?>
<svg version="1.1" xmlns:xlink="http://www.w3.org/1999/xlink" width="73px" height="25px" xmlns="http://www.w3.org/2000/svg">
  <g transform="matrix(1 0 0 1 -1041 -825 )">
    <path d="M 1042 837.5  A 11.5 11.5 0 0 1 1053.5 826 L 1101.5 826  A 11.5 11.5 0 0 1 1113 837.5 A 11.5 11.5 0 0 1 1101.5 849 L 1053.5 849  A 11.5 11.5 0 0 1 1042 837.5 Z " fill-rule="nonzero" fill="#ffffff" stroke="none" />
    <path d="M 1041.5 837.5  A 12 12 0 0 1 1053.5 825.5 L 1101.5 825.5  A 12 12 0 0 1 1113.5 837.5 A 12 12 0 0 1 1101.5 849.5 L 1053.5 849.5  A 12 12 0 0 1 1041.5 837.5 Z " stroke-width="1" stroke="#090909" fill="none" stroke-opacity="0.654901960784314" />
  </g>
</svg>