<?xml version="1.0" encoding="utf-8"?>
<svg version="1.1" xmlns:xlink="http://www.w3.org/1999/xlink" width="6px" height="10px" xmlns="http://www.w3.org/2000/svg">
  <g transform="matrix(1 0 0 1 -504 -254 )">
    <path d="M 5.84812524609375 5.3484007578125  C 5.87999596875 5.314997984375  5.8968686953125 5.27411638671875  5.91861980859375 5.23587555078125  C 5.9246270625 5.224244046875  5.93436365625 5.214507453125  5.939625046875 5.2024929453125  C 6.0427563515625 4.9879854921875  6.00899071875 4.725500609375  5.82637414453125 4.5529834765625  L 1.68674909765625 0.6376226328125  C 1.46099315625 0.42424405859375  1.10513371875 0.43436366796875  0.89137212890625 0.65975675  C 0.6779935546875 0.88551269140625  0.6877503046875 1.24137212890625  0.91350624609375 1.45513371875  L 4.6278860390625 4.96887515234375  L 0.92812121484375 8.534746671875  C 0.70462303125 8.75036284765625  0.69786990234375 9.10624244140625  0.91350624609375 9.330123640625  C 1.02375352734375 9.44486628125  1.17113291015625 9.5022577578125  1.31851229296875 9.5022577578125  C 1.45913855859375 9.5022577578125  1.5997648125 9.4497648125  1.70888321484375 9.344758765625  L 5.81101330078125 5.39113694140625  C 5.81889530859375 5.38325493359375  5.8218787734375 5.3723894609375  5.82976078125 5.36414460546875  C 5.83576803515625 5.3585203671875  5.8421381484375 5.35438785546875  5.84812524609375 5.3484007578125  Z " fill-rule="nonzero" fill="#868686" stroke="none" transform="matrix(1 0 0 1 504 254 )" />
  </g>
</svg>