<?xml version="1.0" encoding="utf-8"?>
<svg version="1.1" xmlns:xlink="http://www.w3.org/1999/xlink" width="18px" height="20px" xmlns="http://www.w3.org/2000/svg">
  <g transform="matrix(1 0 0 1 -2630 -298 )">
    <path d="M 2.35416667382813 16.6458333261719  L 2.35416667382813 4.5  L 1.4375 4.5  C 1.05780423449133 4.5  0.75 4.19219576550867  0.75 3.8125  C 0.75 3.43280423449133  1.05780423449133 3.125  1.4375 3.125  L 16.5625 3.125  C 16.9421957655087 3.125  17.25 3.43280423449133  17.25 3.8125  C 17.25 4.19219576550867  16.9421957655087 4.5  16.5625 4.5  L 4 4.5  L 4 16.6458333261719  C 3.72916667382813 16.6458332899868  3.72916667382812 16.6458333838413  3.72916667382812 16.6458333476563  C 3.72916667382812 17.2786596195489  4.24217372810738 17.7916666738281  4.875 17.7916666738281  L 13.125 17.7916666738281  C 13.7578262718926 17.7916666738281  14.2708333261719 17.2786596195489  14.2708333261719 16.6458333476563  C 14.2708333261719 16.6458333476563  14.2708333261719 16.6458333261719  14 16.6458333261719  L 14 6.5625  C 14.2708333261719 6.5625  14.2708333261719 6.5625  14.2708333261719 6.5625  C 14.2708333261719 6.18280423449133  14.5786375606632 5.875  14.9583333261719 5.875  C 15.3380290916805 5.875  15.6458333261719 6.18280423449133  15.6458333261719 6.5625  L 15.6458333261719 16.6458333261719  C 15.6458333261719 18.0380208261719  14.5171875 19.1666666523438  13.125 19.1666666738281  L 4.875 19.1666666738281  C 3.4828125 19.1666666738281  2.35416667382813 18.0380208476563  2.35416667382813 16.6458333261719  Z M 10.8333333261719 2.20833332617187  L 7.16666667382813 2.20833332617187  C 6.78697090831945 2.20833332617187  6.47916667382813 1.90052909168055  6.47916667382813 1.52083332617187  C 6.47916667382813 1.1411375606632  6.78697090831945 0.833333326171875  7.16666667382813 0.833333326171875  L 10.8333333261719 0.833333326171875  C 11.2130290916805 0.833333326171875  11.5208333261719 1.1411375606632  11.5208333261719 1.52083332617187  C 11.5208333261719 1.90052909168055  11.2130290916805 2.20833332617187  10.8333333261719 2.20833332617187  Z M 6.47916667382813 13.8958333261719  L 6.47916667382813 8.39583332617187  C 6.47916667382813 8.0161375606632  6.78697090831945 7.70833332617187  7.16666667382813 7.70833332617187  C 7.54636243933679 7.70833332617187  7.85416667382813 8.0161375606632  7.85416667382813 8.39583332617187  L 7.85416667382813 13.8958333261719  C 7.85416667382813 14.2755290916805  7.54636243933679 14.5833333261719  7.16666667382813 14.5833333261719  C 6.78697090831945 14.5833333261719  6.47916667382813 14.2755290916805  6.47916667382813 13.8958333261719  Z M 10.1458333261719 13.8958333261719  L 10.1458333261719 8.39583332617187  C 10.1458333261719 8.0161375606632  10.4536375606632 7.70833332617187  10.8333333261719 7.70833332617187  C 11.2130290916805 7.70833332617187  11.5208333261719 8.0161375606632  11.5208333261719 8.39583332617187  L 11.5208333261719 13.8958333261719  C 11.5208333261719 14.2755290916805  11.2130290916805 14.5833333261719  10.8333333261719 14.5833333261719  C 10.4536375606632 14.5833333261719  10.1458333261719 14.2755290916805  10.1458333261719 13.8958333261719  Z " fill-rule="nonzero" fill="#8a8a8a" stroke="none" fill-opacity="0.498039215686275" transform="matrix(1 0 0 1 2630 298 )" />
  </g>
</svg>