<?xml version="1.0" encoding="utf-8"?>
<svg version="1.1" xmlns:xlink="http://www.w3.org/1999/xlink" width="14px" height="16px" xmlns="http://www.w3.org/2000/svg">
  <g transform="matrix(1 0 0 1 -1328 -201 )">
    <path d="M 7 16  L 2.286049109375 11.31338215625  C 1.03659862918731 10.0741355058271  0.333800504854777 8.38722037746506  0.333800504854777 6.62743096875  C 0.333800504854777 4.86764156003494  1.03659862918731 3.18072643167293  2.286049109375 1.94147978125  C 4.889355328125 -0.647159921874999  9.1106446875 -0.647159921874999  11.713950890625 1.94147978125  C 12.9636067657496 3.18075236465996  13.6665355919652 4.86781079117521  13.6665355919652 6.627764296875  C 13.6665355919652 8.3877178025748  12.9636067657496 10.07477622909  11.713950890625 11.3140488125  L 7 16  Z M 7 8.6667430625  C 8.10455799660578 8.6667430625  8.999979171875 7.77132188723078  8.999979171875 6.666763890625  C 8.999979171875 5.56220589401922  8.10455799660578 4.66678471875  7 4.66678471875  C 5.89544200339422 4.66678471875  5.000020828125 5.56220589401922  5.000020828125 6.666763890625  C 5.000020828125 7.77132188723078  5.89544200339422 8.6667430625  7 8.6667430625  Z " fill-rule="nonzero" fill="#868686" stroke="none" fill-opacity="0.584313725490196" transform="matrix(1 0 0 1 1328 201 )" />
  </g>
</svg>