<?xml version="1.0" encoding="utf-8"?>
<svg version="1.1" xmlns:xlink="http://www.w3.org/1999/xlink" width="15px" height="15px" xmlns="http://www.w3.org/2000/svg">
  <g transform="matrix(1 0 0 1 -1030 -156 )">
    <path d="M 13.443948 14.118321  C 13.443948 14.118355  13.933548 13.866517  14.378727 13.094802  C 14.945388 12.108632  14.631517 11.351214  13.628007 10.593371  C 12.448343 9.702452  11.295471 9.103185  10.466517 10.063124  C 10.466517 10.063124  9.586801 11.110375  6.99799 8.659706  C 3.98763 5.790106  5.251053 4.772367  5.251053 4.772367  C 6.298032 3.719795  5.632499 2.934565  4.754415 1.74533  C 3.876399 0.556112  2.989441 0.179715  1.716107 1.202503  C -0.737622 3.173534  2.722286 7.801563  4.47162 9.601115  C 4.471552 9.601251  7.131695 12.352803  8.805668 13.268797  L 9.701177 13.769532  C 10.985578 14.428639  12.428266 14.730355  13.443948 14.118321  Z " fill-rule="nonzero" fill="#919191" stroke="none" transform="matrix(1 0 0 1 1030 156 )" />
  </g>
</svg>