<?xml version="1.0" encoding="utf-8"?>
<svg version="1.1" xmlns:xlink="http://www.w3.org/1999/xlink" width="48px" height="25px" xmlns="http://www.w3.org/2000/svg">
  <g transform="matrix(1 0 0 1 -1752 -158 )">
    <path d="M 1.1953125 17.353515625  C 0.3984375 15.810546875  0 14.1927083333333  0 12.5  C 0 10.8072916666667  0.3984375 9.189453125  1.1953125 7.646484375  C 1.9921875 6.103515625  3.05859375 4.775390625  4.39453125 3.662109375  C 5.73046875 2.548828125  7.32421875 1.66015625  9.17578125 0.996093749999999  C 11.02734375 0.332031250000001  12.96875 0  15 0  L 33 0  C 35.03125 0  36.97265625 0.332031250000001  38.82421875 0.996093749999999  C 40.67578125 1.66015625  42.26953125 2.548828125  43.60546875 3.662109375  C 44.94140625 4.775390625  46.0078125 6.103515625  46.8046875 7.646484375  C 47.6015625 9.189453125  48 10.8072916666667  48 12.5  C 48 14.1927083333333  47.6015625 15.810546875  46.8046875 17.353515625  C 46.0078125 18.896484375  44.94140625 20.224609375  43.60546875 21.337890625  C 42.26953125 22.451171875  40.67578125 23.33984375  38.82421875 24.00390625  C 36.97265625 24.66796875  35.03125 25  33 25  L 15 25  C 12.96875 25  11.02734375 24.66796875  9.17578125 24.00390625  C 7.32421875 23.33984375  5.73046875 22.451171875  4.39453125 21.337890625  C 3.05859375 20.224609375  1.9921875 18.896484375  1.1953125 17.353515625  Z M 28.34765625 21.708984375  C 29.82421875 22.236328125  31.375 22.5  33 22.5  C 34.625 22.5  36.17578125 22.236328125  37.65234375 21.708984375  C 39.12890625 21.181640625  40.40625 20.46875  41.484375 19.5703125  C 42.5625 18.671875  43.41796875 17.607421875  44.05078125 16.376953125  C 44.68359375 15.146484375  45 13.8541666666667  45 12.5  C 45 11.1458333333333  44.68359375 9.853515625  44.05078125 8.623046875  C 43.41796875 7.392578125  42.5625 6.328125  41.484375 5.4296875  C 40.40625 4.53125  39.12890625 3.818359375  37.65234375 3.291015625  C 36.17578125 2.763671875  34.625 2.5  33 2.5  C 31.375 2.5  29.82421875 2.763671875  28.34765625 3.291015625  C 26.87109375 3.818359375  25.59375 4.53125  24.515625 5.4296875  C 23.4375 6.328125  22.58203125 7.392578125  21.94921875 8.623046875  C 21.31640625 9.853515625  21 11.1458333333333  21 12.5  C 21 13.8541666666667  21.31640625 15.146484375  21.94921875 16.376953125  C 22.58203125 17.607421875  23.4375 18.671875  24.515625 19.5703125  C 25.59375 20.46875  26.87109375 21.181640625  28.34765625 21.708984375  Z " fill-rule="nonzero" fill="#286eff" stroke="none" transform="matrix(1 0 0 1 1752 158 )" />
  </g>
</svg>