<?xml version="1.0" encoding="utf-8"?>
<svg version="1.1" xmlns:xlink="http://www.w3.org/1999/xlink" width="14px" height="14px" xmlns="http://www.w3.org/2000/svg">
  <g transform="matrix(1 0 0 1 -530 -324 )">
    <path d="M 537 324  C 540.92 324  544 327.08  544 331  C 544 334.92  540.92 338  537 338  C 533.08 338  530 334.92  530 331  C 530 327.08  533.08 324  537 324  Z " fill-rule="nonzero" fill="#f7f7f7" stroke="none" />
    <path d="M 537 324.5  C 540.64 324.5  543.5 327.36  543.5 331  C 543.5 334.64  540.64 337.5  537 337.5  C 533.36 337.5  530.5 334.64  530.5 331  C 530.5 327.36  533.36 324.5  537 324.5  Z " stroke-width="1" stroke="#d9d9d9" fill="none" />
  </g>
</svg>