<?xml version="1.0" encoding="utf-8"?>
<svg version="1.1" xmlns:xlink="http://www.w3.org/1999/xlink" width="14px" height="14px" xmlns="http://www.w3.org/2000/svg">
  <g transform="matrix(1 0 0 1 -632 -324 )">
    <path d="M 639 324  C 642.92 324  646 327.08  646 331  C 646 334.92  642.92 338  639 338  C 635.08 338  632 334.92  632 331  C 632 327.08  635.08 324  639 324  Z " fill-rule="nonzero" fill="#ffffff" stroke="none" fill-opacity="0" />
    <path d="M 639 324.5  C 642.64 324.5  645.5 327.36  645.5 331  C 645.5 334.64  642.64 337.5  639 337.5  C 635.36 337.5  632.5 334.64  632.5 331  C 632.5 327.36  635.36 324.5  639 324.5  Z " stroke-width="1" stroke="#1890ff" fill="none" />
  </g>
</svg>