<?xml version="1.0" encoding="utf-8"?>
<svg version="1.1" xmlns:xlink="http://www.w3.org/1999/xlink" width="19px" height="19px" xmlns="http://www.w3.org/2000/svg">
  <g transform="matrix(1 0 0 1 -534 -623 )">
    <path d="M 18.6875 9.5  C 18.6875 4.38125  14.61875 0.3125  9.5 0.3125  C 4.38125 0.3125  0.3125 4.38125  0.3125 9.5  C 0.3125 14.61875  4.38125 18.6875  9.5 18.6875  C 14.61875 18.6875  18.6875 14.61875  18.6875 9.5  Z M 10.55 8.975  L 10.55 15.0125  C 10.55 15.66875  10.15625 16.0625  9.5 16.0625  C 8.84375 16.0625  8.45 15.66875  8.45 15.0125  L 8.45 8.975  C 8.45 8.31875  8.84375 7.925  9.5 7.925  C 10.15625 7.925  10.55 8.31875  10.55 8.975  Z M 9.5 3.33125  C 10.41875 3.33125  11.075 4.11875  11.075 5.0375  C 11.075 5.95625  10.2875 6.6125  9.5 6.6125  C 8.7125 6.6125  7.925 5.95625  7.925 5.0375  C 7.925 4.11875  8.58125 3.33125  9.5 3.33125  Z " fill-rule="nonzero" fill="#8a8a8a" stroke="none" transform="matrix(1 0 0 1 534 623 )" />
  </g>
</svg>