<?xml version="1.0" encoding="utf-8"?>
<svg version="1.1" xmlns:xlink="http://www.w3.org/1999/xlink" width="85px" height="40px" xmlns="http://www.w3.org/2000/svg">
  <g transform="matrix(1 0 0 1 -522 -518 )">
    <path d="M 523 522  A 3 3 0 0 1 526 519 L 603 519  A 3 3 0 0 1 606 522 L 606 554  A 3 3 0 0 1 603 557 L 526 557  A 3 3 0 0 1 523 554 L 523 522  Z " fill-rule="nonzero" fill="#000000" stroke="none" fill-opacity="0.0196078431372549" />
    <path d="M 522.5 522  A 3.5 3.5 0 0 1 526 518.5 L 603 518.5  A 3.5 3.5 0 0 1 606.5 522 L 606.5 554  A 3.5 3.5 0 0 1 603 557.5 L 526 557.5  A 3.5 3.5 0 0 1 522.5 554 L 522.5 522  Z " stroke-width="1" stroke-dasharray="9,4" stroke="#d9d9d9" fill="none" stroke-dashoffset="0.5" />
  </g>
</svg>