<?xml version="1.0" encoding="utf-8"?>
<svg version="1.1" xmlns:xlink="http://www.w3.org/1999/xlink" width="14px" height="14px" xmlns="http://www.w3.org/2000/svg">
  <g transform="matrix(1 0 0 1 -490 -532 )">
    <path d="M 13.7697368421053 7  C 13.7697368421053 3.22828947368421  10.7717105263158 0.230263157894737  7 0.230263157894737  C 3.22828947368421 0.230263157894737  0.230263157894737 3.22828947368421  0.230263157894737 7  C 0.230263157894737 10.7717105263158  3.22828947368421 13.7697368421053  7 13.7697368421053  C 10.7717105263158 13.7697368421053  13.7697368421053 10.7717105263158  13.7697368421053 7  Z M 7.77368421052632 6.61315789473684  L 7.77368421052632 11.0618421052632  C 7.77368421052632 11.5453947368421  7.48355263157895 11.8355263157895  7 11.8355263157895  C 6.51644736842105 11.8355263157895  6.22631578947369 11.5453947368421  6.22631578947369 11.0618421052632  L 6.22631578947369 6.61315789473684  C 6.22631578947369 6.12960526315789  6.51644736842105 5.83947368421053  7 5.83947368421053  C 7.48355263157895 5.83947368421053  7.77368421052632 6.12960526315789  7.77368421052632 6.61315789473684  Z M 7 2.4546052631579  C 7.67697368421053 2.4546052631579  8.16052631578948 3.03486842105263  8.16052631578948 3.71184210526316  C 8.16052631578948 4.38881578947368  7.58026315789474 4.87236842105263  7 4.87236842105263  C 6.41973684210527 4.87236842105263  5.83947368421053 4.38881578947368  5.83947368421053 3.71184210526316  C 5.83947368421053 3.03486842105263  6.32302631578948 2.4546052631579  7 2.4546052631579  Z " fill-rule="nonzero" fill="#8a8a8a" stroke="none" transform="matrix(1 0 0 1 490 532 )" />
  </g>
</svg>