<?xml version="1.0" encoding="utf-8"?>
<svg version="1.1" xmlns:xlink="http://www.w3.org/1999/xlink" width="11px" height="13px" xmlns="http://www.w3.org/2000/svg">
  <g transform="matrix(1 0 0 1 -3557 -482 )">
    <path d="M 1.43865741178385 10.8197916620117  L 1.43865741178385 2.925  L 0.878472222222222 2.925  C 0.646435921078035 2.925  0.458333333333333 2.72492724758064  0.458333333333333 2.478125  C 0.458333333333333 2.23132275241936  0.646435921078035 2.03125  0.878472222222222 2.03125  L 10.1215277777778 2.03125  C 10.353564078922 2.03125  10.5416666666667 2.23132275241936  10.5416666666667 2.478125  C 10.5416666666667 2.72492724758064  10.353564078922 2.925  10.1215277777778 2.925  L 2.27893518956163 2.925  L 2.27893518956163 10.8197916620117  C 2.27893518956163 11.2311287527068  2.59243950051007 11.5645833379883  2.97916666666667 11.5645833379883  L 8.02083333333333 11.5645833379883  C 8.40756049948993 11.5645833379883  8.72106481043837 11.2311287527068  8.72106481043837 10.8197916759766  L 8.72106481043837 4.265625  C 8.72106481043837 4.01882275241936  8.90916739818307 3.81875  9.14120369932726 3.81875  C 9.37324000047145 3.81875  9.56134258821615 4.01882275241936  9.56134258821615 4.265625  L 9.56134258821615 10.8197916620117  C 9.56134258821615 11.7247135370117  8.87161458333333 12.4583333240234  8.02083333333333 12.4583333379883  L 2.97916666666667 12.4583333379883  C 2.12838541666667 12.4583333379883  1.43865741178385 11.7247135509766  1.43865741178385 10.8197916620117  Z M 6.62037036599392 1.43541666201172  L 4.37962963400608 1.43541666201172  C 4.14759333286189 1.43541666201172  3.95949074511719 1.23534390959235  3.95949074511719 0.988541662011718  C 3.95949074511719 0.741739414431083  4.14759333286189 0.541666662011718  4.37962963400608 0.541666662011718  L 6.62037036599392 0.541666662011718  C 6.85240666713811 0.541666662011718  7.04050925488281 0.741739414431083  7.04050925488281 0.988541662011718  C 7.04050925488281 1.23534390959235  6.85240666713811 1.43541666201172  6.62037036599392 1.43541666201172  Z M 3.95949074511719 9.03229166201172  L 3.95949074511719 5.45729166201172  C 3.95949074511719 5.21048941443108  4.14759333286189 5.01041666201172  4.37962963400608 5.01041666201172  C 4.61166593515026 5.01041666201172  4.79976852289497 5.21048941443108  4.79976852289497 5.45729166201172  L 4.79976852289497 9.03229166201172  C 4.79976852289497 9.27909390959235  4.61166593515026 9.47916666201172  4.37962963400608 9.47916666201172  C 4.14759333286189 9.47916666201172  3.95949074511719 9.27909390959235  3.95949074511719 9.03229166201172  Z M 6.20023147710503 9.03229166201172  L 6.20023147710503 5.45729166201172  C 6.20023147710503 5.21048941443108  6.38833406484974 5.01041666201172  6.62037036599392 5.01041666201172  C 6.85240666713811 5.01041666201172  7.04050925488281 5.21048941443108  7.04050925488281 5.45729166201172  L 7.04050925488281 9.03229166201172  C 7.04050925488281 9.27909390959235  6.85240666713811 9.47916666201172  6.62037036599392 9.47916666201172  C 6.38833406484974 9.47916666201172  6.20023147710503 9.27909390959235  6.20023147710503 9.03229166201172  Z " fill-rule="nonzero" fill="#ffffff" stroke="none" transform="matrix(1 0 0 1 3557 482 )" />
  </g>
</svg>