<?xml version="1.0" encoding="utf-8"?>
<svg version="1.1" xmlns:xlink="http://www.w3.org/1999/xlink" width="15px" height="11px" xmlns="http://www.w3.org/2000/svg">
  <g transform="matrix(1 0 0 1 -3536 -483 )">
    <path d="M 14.3469874310303 5.68708217236328  C 14.3559251165771 5.64374953076172  14.3693485198975 5.57894847167969  14.3693485198975 5.50146750097656  C 14.3693485198975 5.42080418945313  14.355402354126 5.35333193505859  14.3514394152832 5.34530188134766  C 14.3484376922607 5.30533298388672  14.3344915264893 5.23248537109375  14.3215234515381 5.19424779736328  C 14.3180495581055 5.18473374267578  14.3135469818115 5.17475801025391  14.3095840429688 5.16524395556641  C 14.3025856640625 5.143313828125  14.2951319732666 5.12187836230469  14.2866664581299 5.10482891552735  C 13.0198584777832 2.39558378125  10.2924295495605 0.574673864746095  7.50069985107422 0.574673864746095  C 4.70947605651855 0.574673864746095  1.98228321350098 2.39390192529297  0.721225702514648 5.08848850146484  C 0.706031627197266 5.11773966601563  0.69530639465332 5.14575416845703  0.688577834472656 5.17012465234375  C 0.685592986450195 5.17815470605469  0.682102218017578 5.18570658203125  0.679370330200195 5.19278029638672  C 0.654445971679688 5.26417689208985  0.653956942749023 5.31385769921875  0.655946841430664 5.30094696484375  C 0.644243518066406 5.35333195117188  0.633518302001953 5.45760724609375  0.633518302001953 5.45760724609375  C 0.630533453979492 5.48901844433594  0.630533453979492 5.51411442871094  0.634024205932617 5.54531128808594  C 0.634024205932617 5.54531128808594  0.644732563476562 5.63642850976563  0.649977145385742 5.65492897363282  C 0.651461140136719 5.68075047460938  0.657936756591797 5.718279015625  0.665660266113281 5.75239439306641  C 0.671882922363281 5.78162907373047  0.681107301635742 5.80989091503907  0.693805557861328 5.83765807861328  C 0.700298032836914 5.8590935444336  0.708021542358398 5.87907799316407  0.714750102539062 5.89418176123047  C 1.9832781628418 8.60388857324219  4.70998196044922 10.4252931674805  7.50069985107422 10.4252931674805  C 10.2929354699707 10.4252931674805  13.0203643981934 8.60537257421875  14.2727202923584 5.92438928125  C 14.2921302502441 5.88930106445313  14.3046092962646 5.85617502636719  14.3130748114014 5.8274185234375  C 14.3170546087646 5.818662953125  14.3205622357178 5.81086375439453  14.3230411798096 5.80306453955078  C 14.3449806738281 5.74067083691406  14.3494495330811 5.68660399462891  14.3474596179199 5.68660399462891  Z M 13.4504190600586 5.50732103710937  C 13.4474341955566 5.51657126904297  13.4459502008057 5.52534332324219  13.4444493475342 5.5345935390625  C 13.443960302124 5.53655570166016  13.4429484942627 5.53897955810547  13.4419535449219 5.54094173681641  C 13.4404695501709 5.54677877294922  13.4379906060791 5.5536051484375  13.4364728778076 5.56043152392578  C 12.3092109136963 7.93586048535156  9.92913772705078 9.52973583203125  7.50069983459473 9.52973583203125  C 5.07824851318359 9.52973583203125  2.70239120910645 7.94027948828125  1.56391496704102 5.55654016650391  C 1.56116620422363 5.54826277392578  1.55917630554199 5.54044707519531  1.55619145751953 5.53266436035156  C 1.55568555358887 5.52486514550781  1.55420155883789 5.5185334477539  1.55371251342773 5.51413092871094  C 1.55271756408691 5.50928321582031  1.55172261474609 5.50245684033203  1.55096375061035 5.4965868203125  L 1.55096375061035 5.4905024453125  C 1.55371251342773 5.48051021289062  1.55568555358887 5.47053448046875  1.5566973614502 5.45956942480469  C 1.55868726013184 5.45373238867187  1.56018811340332 5.44812617529297  1.56243097229004 5.44179447753906  C 2.69016512329102 3.06512883789063  5.07224508361816 1.47052797460937  7.50068297607422 1.47052797460937  C 9.93009895935059 1.47052797460937  12.3117067327881 3.06657985498047  13.435966973877 5.43958495996094  C 13.4369619232178 5.44421831787109  13.4379737310791 5.44812617529297  13.4394746008301 5.45129201611328  C 13.4404695501709 5.45518337353515  13.4414476409912 5.45909123095703  13.4434375396729 5.46322992724609  C 13.4459333422852 5.48102135839844  13.4479232409668 5.49856546679687  13.4504190600586 5.50732103710937  Z M 9.79058667663574 5.5  C 9.79058667663574 4.26549848828125  8.76298838012695 3.26123038720703  7.50068297607422 3.26123038720703  C 6.23837757202148 3.26123038720703  5.21077927551269 4.26549848828125  5.21077927551269 5.5  C 5.21077927551269 6.73425417285156  6.23837757202148 7.73901695166016  7.50068297607422 7.73901695166016  C 8.76298838012695 7.73901695166016  9.79058667663574 6.73425417285156  9.79058667663574 5.5  Z M 8.87464206481934 5.50001648388672  C 8.87462518981934 6.24066132958984  8.25816065917969 6.84341016455078  7.50068297607422 6.84341016455078  C 6.7436943383789 6.84341016455078  6.12675762084961 6.24066132958984  6.12675762084961 5.50001648388672  C 6.12675762084961 4.75960247705078  6.7436943383789 4.15687014208984  7.50068297607422 4.15687014208984  C 8.25816065917969 4.15687014208984  8.87464206481934 4.75961897705078  8.87464206481934 5.50001648388672  Z " fill-rule="nonzero" fill="#ffffff" stroke="none" transform="matrix(1 0 0 1 3536 483 )" />
  </g>
</svg>