<?xml version="1.0" encoding="utf-8"?>
<svg version="1.1" xmlns:xlink="http://www.w3.org/1999/xlink" width="109px" height="32px" xmlns="http://www.w3.org/2000/svg">
  <defs>
    <mask fill="white" id="clip254">
      <path d="M 0 28  L 0 4  C 0 1.76000000000022  1.34153846153845 0  3.04895104895105 0  L 105.951048951049 0  C 107.658461538462 0  109 1.76000000000022  109 4  L 109 28  C 109 30.2399999999998  107.658461538462 32  105.951048951049 32  L 39.6363636363636 32  L 3.04895104895105 32  C 1.34153846153845 32  0 30.2399999999998  0 28  Z " fill-rule="evenodd" />
    </mask>
  </defs>
  <g transform="matrix(1 0 0 1 -2303 -2963 )">
    <path d="M 0 28  L 0 4  C 0 1.76000000000022  1.34153846153845 0  3.04895104895105 0  L 105.951048951049 0  C 107.658461538462 0  109 1.76000000000022  109 4  L 109 28  C 109 30.2399999999998  107.658461538462 32  105.951048951049 32  L 39.6363636363636 32  L 3.04895104895105 32  C 1.34153846153845 32  0 30.2399999999998  0 28  Z " fill-rule="nonzero" fill="#ffffff" stroke="none" transform="matrix(1 0 0 1 2303 2963 )" />
    <path d="M 0 28  L 0 4  C 0 1.76000000000022  1.34153846153845 0  3.04895104895105 0  L 105.951048951049 0  C 107.658461538462 0  109 1.76000000000022  109 4  L 109 28  C 109 30.2399999999998  107.658461538462 32  105.951048951049 32  L 39.6363636363636 32  L 3.04895104895105 32  C 1.34153846153845 32  0 30.2399999999998  0 28  Z " stroke-width="2" stroke="#d9d9d9" fill="none" transform="matrix(1 0 0 1 2303 2963 )" mask="url(#clip254)" />
  </g>
</svg>