<?xml version="1.0" encoding="utf-8"?>
<svg version="1.1" xmlns:xlink="http://www.w3.org/1999/xlink" width="96px" height="32px" xmlns="http://www.w3.org/2000/svg">
  <defs>
    <mask fill="white" id="clip255">
      <path d="M 0 28  L 0 4  C 0 1.76000000000022  1.18153846153846 0  2.68531468531469 0  L 93.3146853146853 0  C 94.8184615384615 0  96 1.76000000000022  96 4  L 96 28  C 96 30.2399999999998  94.8184615384615 32  93.3146853146853 32  L 34.9090909090909 32  L 2.68531468531469 32  C 1.18153846153846 32  0 30.2399999999998  0 28  Z " fill-rule="evenodd" />
    </mask>
  </defs>
  <g transform="matrix(1 0 0 1 -2549 -2862 )">
    <path d="M 0 28  L 0 4  C 0 1.76000000000022  1.18153846153846 0  2.68531468531469 0  L 93.3146853146853 0  C 94.8184615384615 0  96 1.76000000000022  96 4  L 96 28  C 96 30.2399999999998  94.8184615384615 32  93.3146853146853 32  L 34.9090909090909 32  L 2.68531468531469 32  C 1.18153846153846 32  0 30.2399999999998  0 28  Z " fill-rule="nonzero" fill="#ffffff" stroke="none" transform="matrix(1 0 0 1 2549 2862 )" />
    <path d="M 0 28  L 0 4  C 0 1.76000000000022  1.18153846153846 0  2.68531468531469 0  L 93.3146853146853 0  C 94.8184615384615 0  96 1.76000000000022  96 4  L 96 28  C 96 30.2399999999998  94.8184615384615 32  93.3146853146853 32  L 34.9090909090909 32  L 2.68531468531469 32  C 1.18153846153846 32  0 30.2399999999998  0 28  Z " stroke-width="2" stroke="#d9d9d9" fill="none" transform="matrix(1 0 0 1 2549 2862 )" mask="url(#clip255)" />
  </g>
</svg>