<?xml version="1.0" encoding="utf-8"?>
<svg version="1.1" xmlns:xlink="http://www.w3.org/1999/xlink" width="408px" height="32px" xmlns="http://www.w3.org/2000/svg">
  <g transform="matrix(1 0 0 1 -2265 -2910 )">
    <path d="M 2266 2914  A 3 3 0 0 1 2269 2911 L 2669 2911  A 3 3 0 0 1 2672 2914 L 2672 2938  A 3 3 0 0 1 2669 2941 L 2269 2941  A 3 3 0 0 1 2266 2938 L 2266 2914  Z " fill-rule="nonzero" fill="#ffffff" stroke="none" />
    <path d="M 2265.5 2914  A 3.5 3.5 0 0 1 2269 2910.5 L 2669 2910.5  A 3.5 3.5 0 0 1 2672.5 2914 L 2672.5 2938  A 3.5 3.5 0 0 1 2669 2941.5 L 2269 2941.5  A 3.5 3.5 0 0 1 2265.5 2938 L 2265.5 2914  Z " stroke-width="1" stroke-dasharray="9,4" stroke="#1890ff" fill="none" stroke-dashoffset="0.5" />
  </g>
</svg>