<?xml version="1.0" encoding="utf-8"?>
<svg version="1.1" xmlns:xlink="http://www.w3.org/1999/xlink" width="174px" height="32px" xmlns="http://www.w3.org/2000/svg">
  <defs>
    <mask fill="white" id="clip257">
      <path d="M 0 28  L 0 4  C 0 1.76000000000022  2.14153846153845 0  4.86713286713287 0  L 169.132867132867 0  C 171.858461538462 0  174 1.76000000000022  174 4  L 174 28  C 174 30.2399999999998  171.858461538462 32  169.132867132867 32  L 63.2727272727273 32  L 4.86713286713287 32  C 2.14153846153845 32  0 30.2399999999998  0 28  Z " fill-rule="evenodd" />
    </mask>
  </defs>
  <g transform="matrix(1 0 0 1 -2965 -2999 )">
    <path d="M 0 28  L 0 4  C 0 1.76000000000022  2.14153846153845 0  4.86713286713287 0  L 169.132867132867 0  C 171.858461538462 0  174 1.76000000000022  174 4  L 174 28  C 174 30.2399999999998  171.858461538462 32  169.132867132867 32  L 63.2727272727273 32  L 4.86713286713287 32  C 2.14153846153845 32  0 30.2399999999998  0 28  Z " fill-rule="nonzero" fill="#ffffff" stroke="none" transform="matrix(1 0 0 1 2965 2999 )" />
    <path d="M 0 28  L 0 4  C 0 1.76000000000022  2.14153846153845 0  4.86713286713287 0  L 169.132867132867 0  C 171.858461538462 0  174 1.76000000000022  174 4  L 174 28  C 174 30.2399999999998  171.858461538462 32  169.132867132867 32  L 63.2727272727273 32  L 4.86713286713287 32  C 2.14153846153845 32  0 30.2399999999998  0 28  Z " stroke-width="2" stroke="#d9d9d9" fill="none" transform="matrix(1 0 0 1 2965 2999 )" mask="url(#clip257)" />
  </g>
</svg>