<?xml version="1.0" encoding="utf-8"?>
<svg version="1.1" xmlns:xlink="http://www.w3.org/1999/xlink" width="75px" height="32px" xmlns="http://www.w3.org/2000/svg">
  <defs>
    <mask fill="white" id="clip258">
      <path d="M 0 28  L 0 4  C 0 1.76000000000022  0.923076923076918 0  2.0979020979021 0  L 72.9020979020979 0  C 74.0769230769231 0  75 1.76000000000022  75 4  L 75 28  C 75 30.2399999999998  74.0769230769231 32  72.9020979020979 32  L 27.2727272727273 32  L 2.0979020979021 32  C 0.923076923076918 32  0 30.2399999999998  0 28  Z " fill-rule="evenodd" />
    </mask>
  </defs>
  <g transform="matrix(1 0 0 1 -2927 -2905 )">
    <path d="M 0 28  L 0 4  C 0 1.76000000000022  0.923076923076918 0  2.0979020979021 0  L 72.9020979020979 0  C 74.0769230769231 0  75 1.76000000000022  75 4  L 75 28  C 75 30.2399999999998  74.0769230769231 32  72.9020979020979 32  L 27.2727272727273 32  L 2.0979020979021 32  C 0.923076923076918 32  0 30.2399999999998  0 28  Z " fill-rule="nonzero" fill="#ffffff" stroke="none" transform="matrix(1 0 0 1 2927 2905 )" />
    <path d="M 0 28  L 0 4  C 0 1.76000000000022  0.923076923076918 0  2.0979020979021 0  L 72.9020979020979 0  C 74.0769230769231 0  75 1.76000000000022  75 4  L 75 28  C 75 30.2399999999998  74.0769230769231 32  72.9020979020979 32  L 27.2727272727273 32  L 2.0979020979021 32  C 0.923076923076918 32  0 30.2399999999998  0 28  Z " stroke-width="2" stroke="#d9d9d9" fill="none" transform="matrix(1 0 0 1 2927 2905 )" mask="url(#clip258)" />
  </g>
</svg>