<?xml version="1.0" encoding="utf-8"?>
<svg version="1.1" xmlns:xlink="http://www.w3.org/1999/xlink" width="476px" height="32px" xmlns="http://www.w3.org/2000/svg">
  <g transform="matrix(1 0 0 1 -2927 -2953 )">
    <path d="M 2928 2957  A 3 3 0 0 1 2931 2954 L 3399 2954  A 3 3 0 0 1 3402 2957 L 3402 2981  A 3 3 0 0 1 3399 2984 L 2931 2984  A 3 3 0 0 1 2928 2981 L 2928 2957  Z " fill-rule="nonzero" fill="#ffffff" stroke="none" />
    <path d="M 2927.5 2957  A 3.5 3.5 0 0 1 2931 2953.5 L 3399 2953.5  A 3.5 3.5 0 0 1 3402.5 2957 L 3402.5 2981  A 3.5 3.5 0 0 1 3399 2984.5 L 2931 2984.5  A 3.5 3.5 0 0 1 2927.5 2981 L 2927.5 2957  Z " stroke-width="1" stroke-dasharray="9,4" stroke="#1890ff" fill="none" stroke-dashoffset="0.5" />
  </g>
</svg>