<?xml version="1.0" encoding="utf-8"?>
<svg version="1.1" xmlns:xlink="http://www.w3.org/1999/xlink" width="12px" height="12px" xmlns="http://www.w3.org/2000/svg">
  <defs>
    <filter x="820px" y="424px" width="12px" height="12px" filterUnits="userSpaceOnUse" id="filter251">
      <feOffset dx="0" dy="0" in="SourceAlpha" result="shadowOffsetInner" />
      <feGaussianBlur stdDeviation="0" in="shadowOffsetInner" result="shadowGaussian" />
      <feComposite in2="shadowGaussian" operator="atop" in="SourceAlpha" result="shadowComposite" />
      <feColorMatrix type="matrix" values="0 0 0 0 0  0 0 0 0 0  0 0 0 0 0  0 0 0 0.807843137254902 0  " in="shadowComposite" />
    </filter>
    <g id="widget252">
      <path d="M 4 1  L 4 0  L 3 0  L 3 1  L 1 1  C 0.447720000000004 1  0 1.44771  0 2  L 0 11  C 0 11.5523  0.447720000000004 12  1 12  L 11 12  C 11.5523 12  12 11.5523  12 11  L 12 2  C 12 1.44772  11.5523 1  11 1  L 9 1  L 9 0  L 8 0  L 8 1  L 4 1  Z M 8 2  L 8 3  L 9 3  L 9 2  L 11 2  L 11 4  L 1 4  L 1 2  L 3 2  L 3 3  L 4 3  L 4 2  L 8 2  Z M 1 5  L 11 5  L 11 11  L 1 11  L 1 5  Z " fill-rule="nonzero" fill="#999999" stroke="none" transform="matrix(1 0 0 1 820 424 )" />
    </g>
  </defs>
  <g transform="matrix(1 0 0 1 -820 -424 )">
    <use xlink:href="#widget252" filter="url(#filter251)" />
    <use xlink:href="#widget252" />
  </g>
</svg>