<?xml version="1.0" encoding="utf-8"?>
<svg version="1.1" xmlns:xlink="http://www.w3.org/1999/xlink" width="200px" height="113px" xmlns="http://www.w3.org/2000/svg">
  <g transform="matrix(1 0 0 1 -188 -390 )">
    <path d="M 188 390  L 388 390  L 388 503  L 188 503  L 188 390  " fill-rule="nonzero" fill="#cccccc" stroke="none" />
    <path d="M 196 398  L 380 398  L 380 495  L 196 495  L 196 398  " fill-rule="nonzero" fill="#ffffff" stroke="none" />
    <path d="M 300.475 423.9  C 295.729 423.9  292 420.171  292 415.425  C 292 410.679  295.729 406.95  300.475 406.95  C 305.221 406.95  308.95 410.679  308.95 415.425  C 308.95 420.171  305.221 423.9  300.475 423.9  " fill-rule="nonzero" fill="#cccccc" stroke="none" />
    <path d="M 199 492  L 199 441.95  L 243.5 419.2  L 305.8 461.151  L 341.4 432.85  L 377 461.151  L 377 492  L 199 492  " fill-rule="nonzero" fill="#169bd5" stroke="none" />
  </g>
</svg>