<?xml version="1.0" encoding="utf-8"?>
<svg version="1.1" xmlns:xlink="http://www.w3.org/1999/xlink" width="11px" height="11px" xmlns="http://www.w3.org/2000/svg">
  <g transform="matrix(1 0 0 1 -219 -764 )">
    <path d="M 10.0000671875 5  C 10.0000671875 4.6549858984375  9.7206356640625 4.375016796875  9.375016796875 4.375016796875  L 5.625016796875 4.375016796875  L 5.625016796875 0.625016796875  C 5.625016796875 0.280002695312501  5.3450141015625 0  5 0  C 4.6549858984375 0  4.374983203125 0.280002695312501  4.374983203125 0.625016796875  L 4.374983203125 4.375016796875  L 0.625016796875 4.375016796875  C 0.280002695312501 4.375016796875  0 4.6550194921875  0 5.00003359375  C 0 5.3450476953125  0.280002695312501 5.625050390625  0.625016796875 5.625050390625  L 4.375016796875 5.625050390625  L 4.375016796875 9.375050390625  C 4.375016796875 9.7206692578125  4.6550194921875 10.0000671875  5.00003359375 10.0000671875  C 5.3450476953125 10.0000671875  5.625050390625 9.7207028515625  5.625050390625 9.375050390625  L 5.625050390625 5.625016796875  L 9.375050390625 5.625016796875  C 9.7206692578125 5.625016796875  10.0000671875 5.3450141015625  10.0000671875 5  Z " fill-rule="nonzero" fill="#ffffff" stroke="none" transform="matrix(1 0 0 1 219 764 )" />
  </g>
</svg>