<?xml version="1.0" encoding="utf-8"?>
<svg version="1.1" xmlns:xlink="http://www.w3.org/1999/xlink" width="18px" height="18px" xmlns="http://www.w3.org/2000/svg">
  <g transform="matrix(1 0 0 1 -215 -760 )">
    <path d="M 15.1850221875 15.1606302929688  C 13.533765625 16.8049993359375  11.3368834765625 17.7112619335938  9 17.7112619335938  C 6.6631165234375 17.7112619335938  4.466234375 16.8056376953125  2.81373470703125 15.1612686523438  C 1.1605966796875 13.5156565039063  0.25 11.3281481054688  0.25 9.00003359375  C 0.25 6.67252384765625  1.16063029296875 4.484410703125  2.8131299609375 2.83940330078125  C 4.46562962890625 1.1950342578125  6.6625117578125 0.28941001953125  8.99939525390625 0.28941001953125  C 11.33627875 0.28941001953125  13.5331608789063 1.1950342578125  15.1850221875 2.83940330078125  C 16.8387649609375 4.48441068359375  17.7487568945313 6.67252384765625  17.7487568945313 8.999395234375  C 17.7493952539063 11.3275097265625  16.8387649609375 13.515656484375  15.1850221875 15.1606302929688  Z M 14.3037226171875 3.72560810546875  C 12.8881198828125 2.315616171875  11.0037629296875 1.53873806640625  9 1.53873806640625  C 6.9956323046875 1.53873806640625  5.1118801171875 2.3149778125  3.6956390234375 3.725003359375  C 2.28000267578125 5.1337521875  1.5 7.007492265625  1.5 9  C 1.5 10.992507734375  2.2793643359375 12.8662478125  3.6950006640625 14.27435828125  C 5.1112417578125 15.6843502148438  6.9949939453125 16.4606235742188  8.999361640625 16.4606235742188  C 11.0031245703125 16.4606235742188  12.8874815234375 15.684383828125  14.3037226171875 14.27435828125  C 15.7193589648437 12.86497109375  16.499361640625 10.991869375  16.49872328125 8.999361640625  C 16.49872328125 7.00685390625  15.7193589453125 5.1337521875  14.3037226171875 3.72560810546875  Z " fill-rule="nonzero" fill="#ffffff" stroke="none" transform="matrix(1 0 0 1 215 760 )" />
  </g>
</svg>