<?xml version="1.0" encoding="utf-8"?>
<svg version="1.1" xmlns:xlink="http://www.w3.org/1999/xlink" width="24px" height="24px" xmlns="http://www.w3.org/2000/svg">
  <defs>
    <mask fill="white" id="clip312">
      <path d="M 23.9203629032258 12  C 23.9203629032258 18.5834173387097  18.5834173387097 23.9203629032258  12 23.9203629032258  C 5.41658266129032 23.9203629032258  0.0796370967741935 18.5834173387097  0.0796370967741935 12  C 0.0796370967741935 5.41658266129032  5.41658266129032 0.0796370967741935  12 0.0796370967741935  C 18.5834173387097 0.0796370967741935  23.9203629032258 5.41658266129032  23.9203629032258 12  Z " fill-rule="evenodd" />
    </mask>
  </defs>
  <g transform="matrix(1 0 0 1 -121 -1352 )">
    <path d="M 23.9203629032258 12  C 23.9203629032258 18.5834173387097  18.5834173387097 23.9203629032258  12 23.9203629032258  C 5.41658266129032 23.9203629032258  0.0796370967741935 18.5834173387097  0.0796370967741935 12  C 0.0796370967741935 5.41658266129032  5.41658266129032 0.0796370967741935  12 0.0796370967741935  C 18.5834173387097 0.0796370967741935  23.9203629032258 5.41658266129032  23.9203629032258 12  Z " fill-rule="nonzero" fill="#118ee9" stroke="none" fill-opacity="0" transform="matrix(1 0 0 1 121 1352 )" />
    <path d="M 23.9203629032258 12  C 23.9203629032258 18.5834173387097  18.5834173387097 23.9203629032258  12 23.9203629032258  C 5.41658266129032 23.9203629032258  0.0796370967741935 18.5834173387097  0.0796370967741935 12  C 0.0796370967741935 5.41658266129032  5.41658266129032 0.0796370967741935  12 0.0796370967741935  C 18.5834173387097 0.0796370967741935  23.9203629032258 5.41658266129032  23.9203629032258 12  Z " stroke-width="2" stroke="#aaaaaa" fill="none" transform="matrix(1 0 0 1 121 1352 )" mask="url(#clip312)" />
  </g>
</svg>