<?xml version="1.0" encoding="utf-8"?>
<svg version="1.1" xmlns:xlink="http://www.w3.org/1999/xlink" width="1817px" height="10px" preserveAspectRatio="xMinYMid meet" viewBox="773 106  1817 8" xmlns="http://www.w3.org/2000/svg">
  <path d="M 778.5 407  L 778.5 183  A 3 3 0 0 0 781.5 180 A 3 3 0 0 0 778.5 177 L 778.5 110.5  L 1007 110.5  A 3 3 0 0 1 1010 107.5 A 3 3 0 0 1 1013 110.5 L 1449 110.5  A 3 3 0 0 1 1452 107.5 A 3 3 0 0 1 1455 110.5 L 2585.5 110.5  L 2585.5 122  " stroke-width="1" stroke="#797979" fill="none" />
  <path d="M 2579.2 121  L 2585.5 127  L 2591.8 121  L 2579.2 121  Z " fill-rule="nonzero" fill="#797979" stroke="none" />
</svg>