<?xml version="1.0" encoding="utf-8"?>
<svg version="1.1" xmlns:xlink="http://www.w3.org/1999/xlink" width="259px" height="32px" xmlns="http://www.w3.org/2000/svg">
  <defs>
    <mask fill="white" id="clip247">
      <path d="M 0 28  L 0 4  C 0 1.76000000000022  1.72666666666688 0  3.92424242424242 0  L 17.1685606060606 0  L 255.075757575758 0  C 257.273333333333 0  259 1.76000000000022  259 4  L 259 28  C 259 30.2399999999998  257.273333333333 32  255.075757575758 32  L 3.92424242424242 32  C 1.72666666666688 32  0 30.2399999999998  0 28  Z " fill-rule="evenodd" />
    </mask>
  </defs>
  <g transform="matrix(1 0 0 1 -2056 -651 )">
    <path d="M 0 28  L 0 4  C 0 1.76000000000022  1.72666666666688 0  3.92424242424242 0  L 17.1685606060606 0  L 255.075757575758 0  C 257.273333333333 0  259 1.76000000000022  259 4  L 259 28  C 259 30.2399999999998  257.273333333333 32  255.075757575758 32  L 3.92424242424242 32  C 1.72666666666688 32  0 30.2399999999998  0 28  Z " fill-rule="nonzero" fill="#ffffff" stroke="none" transform="matrix(1 0 0 1 2056 651 )" />
    <path d="M 0 28  L 0 4  C 0 1.76000000000022  1.72666666666688 0  3.92424242424242 0  L 17.1685606060606 0  L 255.075757575758 0  C 257.273333333333 0  259 1.76000000000022  259 4  L 259 28  C 259 30.2399999999998  257.273333333333 32  255.075757575758 32  L 3.92424242424242 32  C 1.72666666666688 32  0 30.2399999999998  0 28  Z " stroke-width="2" stroke="#d9d9d9" fill="none" transform="matrix(1 0 0 1 2056 651 )" mask="url(#clip247)" />
  </g>
</svg>