<?xml version="1.0" encoding="utf-8"?>
<svg version="1.1" xmlns:xlink="http://www.w3.org/1999/xlink" width="23px" height="20px" xmlns="http://www.w3.org/2000/svg">
  <defs>
    <filter x="550px" y="507px" width="23px" height="20px" filterUnits="userSpaceOnUse" id="filter304">
      <feOffset dx="1" dy="1" in="SourceAlpha" result="shadowOffsetInner" />
      <feGaussianBlur stdDeviation="2.5" in="shadowOffsetInner" result="shadowGaussian" />
      <feComposite in2="shadowGaussian" operator="atop" in="SourceAlpha" result="shadowComposite" />
      <feColorMatrix type="matrix" values="0 0 0 0 0  0 0 0 0 0  0 0 0 0 0  0 0 0 0.184313725490196 0  " in="shadowComposite" />
    </filter>
    <g id="widget305">
      <path d="M 12.008 1.2465  C 12.1835 1.422  12.2645 1.6245  12.278 1.854  C 12.278 2.0835  12.197 2.286  12.035 2.4615  L 5.6225 8.8605  C 5.285 9.198  4.7585 9.198  4.421 8.8605  L 0.992 5.4315  C 0.6545 5.094  0.6545 4.5675  0.992 4.23  C 1.3295 3.8925  1.856 3.8925  2.1935 4.23  L 5.015 7.038  L 10.8065 1.2465  C 11.144 0.908999999999999  11.6705 0.908999999999999  12.008 1.2465  Z " fill-rule="nonzero" fill="#099dff" stroke="none" transform="matrix(1 0 0 1 554 511 )" />
    </g>
  </defs>
  <g transform="matrix(1 0 0 1 -550 -507 )">
    <use xlink:href="#widget305" filter="url(#filter304)" />
    <use xlink:href="#widget305" />
  </g>
</svg>