<?xml version="1.0" encoding="utf-8"?>
<svg version="1.1" xmlns:xlink="http://www.w3.org/1999/xlink" width="21px" height="23px" xmlns="http://www.w3.org/2000/svg">
  <g transform="matrix(1 0 0 1 -370 -503 )">
    <path d="M 20.517 3.1445  C 20.517 2.7395  20.1795 2.402  19.761 2.402  L 15.522 2.402  L 15.522 1.727  C 15.522 1.3085  15.1845 0.971  14.766 0.971  L 6.2745 0.971  C 5.856 0.971  5.5185 1.3085  5.5185 1.727  L 5.5185 2.402  L 1.2795 2.402  C 0.861000000000001 2.402  0.5235 2.7395  0.5235 3.158  L 0.5235 21.6395  C 0.5235 22.058  0.861000000000001 22.3955  1.2795 22  L 19.7475 22  C 20.1795 22.3955  20.5035 22.058  20.517 21.6395  L 20.517 3.1445  Z M 7.0305 3.7385  L 7.0305 2.4695  L 14.01 2.4695  L 14.01 3.7385  L 7.0305 3.7385  Z M 18.87 4.0355  L 18.87 20.735  L 2.1705 20.735  L 2.1705 4.0355  L 5.5185 4.0355  L 5.5185 4.4945  C 5.5185 4.913  5.856 5.2505  6.2745 5.2505  L 14.766 5.2505  C 15.1845 5.2505  15.522 4.9265  15.522 4.4945  L 15.522 4.0355  L 18.87 4.0355  Z " fill-rule="nonzero" fill="#ffa700" stroke="none" transform="matrix(1 0 0 1 370 503 )" />
  </g>
</svg>