<?xml version="1.0" encoding="utf-8"?>
<svg version="1.1" xmlns:xlink="http://www.w3.org/1999/xlink" width="25px" height="25px" viewBox="1357 475  25 25" xmlns="http://www.w3.org/2000/svg">
  <path d="M 1369.5 475  C 1376.5 475  1382 480.5  1382 487.5  C 1382 494.5  1376.5 500  1369.5 500  C 1362.5 500  1357 494.5  1357 487.5  C 1357 480.5  1362.5 475  1369.5 475  Z " fill-rule="nonzero" fill="#f0f0f0" stroke="none" />
  <path d="M 1369.5 475.5  C 1376.22 475.5  1381.5 480.78  1381.5 487.5  C 1381.5 494.22  1376.22 499.5  1369.5 499.5  C 1362.78 499.5  1357.5 494.22  1357.5 487.5  C 1357.5 480.78  1362.78 475.5  1369.5 475.5  Z " stroke-width="1" stroke="#8c8c8c" fill="none" />
  <path d="M 1369.5 493.75  C 1366 493.75  1363.25 491  1363.25 487.5  C 1363.25 484  1366 481.25  1369.5 481.25  C 1373 481.25  1375.75 484  1375.75 487.5  C 1375.75 491  1373 493.75  1369.5 493.75  " fill-rule="nonzero" fill="#8c8c8c" stroke="none" />
</svg>