<?xml version="1.0" encoding="utf-8"?>
<svg version="1.1" xmlns:xlink="http://www.w3.org/1999/xlink" width="25px" height="25px" viewBox="1108 475  25 25" xmlns="http://www.w3.org/2000/svg">
  <path d="M 1120.5 475  C 1127.5 475  1133 480.5  1133 487.5  C 1133 494.5  1127.5 500  1120.5 500  C 1113.5 500  1108 494.5  1108 487.5  C 1108 480.5  1113.5 475  1120.5 475  Z " fill-rule="nonzero" fill="#ffffff" stroke="none" />
  <path d="M 1120.5 475.5  C 1127.22 475.5  1132.5 480.78  1132.5 487.5  C 1132.5 494.22  1127.22 499.5  1120.5 499.5  C 1113.78 499.5  1108.5 494.22  1108.5 487.5  C 1108.5 480.78  1113.78 475.5  1120.5 475.5  Z " stroke-width="1" stroke="#8c8c8c" fill="none" />
  <path d="M 1120.5 493.75  C 1117 493.75  1114.25 491  1114.25 487.5  C 1114.25 484  1117 481.25  1120.5 481.25  C 1124 481.25  1126.75 484  1126.75 487.5  C 1126.75 491  1124 493.75  1120.5 493.75  " fill-rule="nonzero" fill="#8c8c8c" stroke="none" />
</svg>