<?xml version="1.0" encoding="utf-8"?>
<svg version="1.1" xmlns:xlink="http://www.w3.org/1999/xlink" width="25px" height="25px" viewBox="952 563  25 25" xmlns="http://www.w3.org/2000/svg">
  <path d="M 964.5 563  C 971.5 563  977 568.5  977 575.5  C 977 582.5  971.5 588  964.5 588  C 957.5 588  952 582.5  952 575.5  C 952 568.5  957.5 563  964.5 563  Z " fill-rule="nonzero" fill="#f0f0f0" stroke="none" />
  <path d="M 964.5 563.5  C 971.22 563.5  976.5 568.78  976.5 575.5  C 976.5 582.22  971.22 587.5  964.5 587.5  C 957.78 587.5  952.5 582.22  952.5 575.5  C 952.5 568.78  957.78 563.5  964.5 563.5  Z " stroke-width="1" stroke="#8c8c8c" fill="none" />
  <path d="M 964.5 581.75  C 961 581.75  958.25 579  958.25 575.5  C 958.25 572  961 569.25  964.5 569.25  C 968 569.25  970.75 572  970.75 575.5  C 970.75 579  968 581.75  964.5 581.75  " fill-rule="nonzero" fill="#8c8c8c" stroke="none" />
</svg>