<?xml version="1.0" encoding="utf-8"?>
<svg version="1.1" xmlns:xlink="http://www.w3.org/1999/xlink" width="25px" height="25px" viewBox="106 195  25 25" xmlns="http://www.w3.org/2000/svg">
  <path d="M 118.5 195  C 125.5 195  131 200.5  131 207.5  C 131 214.5  125.5 220  118.5 220  C 111.5 220  106 214.5  106 207.5  C 106 200.5  111.5 195  118.5 195  Z " fill-rule="nonzero" fill="#ffffff" stroke="none" />
  <path d="M 118.5 195.5  C 125.22 195.5  130.5 200.78  130.5 207.5  C 130.5 214.22  125.22 219.5  118.5 219.5  C 111.78 219.5  106.5 214.22  106.5 207.5  C 106.5 200.78  111.78 195.5  118.5 195.5  Z " stroke-width="1" stroke="#8c8c8c" fill="none" />
  <path d="M 118.5 213.75  C 115 213.75  112.25 211  112.25 207.5  C 112.25 204  115 201.25  118.5 201.25  C 122 201.25  124.75 204  124.75 207.5  C 124.75 211  122 213.75  118.5 213.75  " fill-rule="nonzero" fill="#8c8c8c" stroke="none" />
</svg>