<?xml version="1.0" encoding="utf-8"?>
<svg version="1.1" xmlns:xlink="http://www.w3.org/1999/xlink" width="25px" height="25px" viewBox="106 308  25 25" xmlns="http://www.w3.org/2000/svg">
  <path d="M 118.5 308  C 125.5 308  131 313.5  131 320.5  C 131 327.5  125.5 333  118.5 333  C 111.5 333  106 327.5  106 320.5  C 106 313.5  111.5 308  118.5 308  Z " fill-rule="nonzero" fill="#ffffff" stroke="none" />
  <path d="M 118.5 308.5  C 125.22 308.5  130.5 313.78  130.5 320.5  C 130.5 327.22  125.22 332.5  118.5 332.5  C 111.78 332.5  106.5 327.22  106.5 320.5  C 106.5 313.78  111.78 308.5  118.5 308.5  Z " stroke-width="1" stroke="#8c8c8c" fill="none" />
  <path d="M 118.5 326.75  C 115 326.75  112.25 324  112.25 320.5  C 112.25 317  115 314.25  118.5 314.25  C 122 314.25  124.75 317  124.75 320.5  C 124.75 324  122 326.75  118.5 326.75  " fill-rule="nonzero" fill="#8c8c8c" stroke="none" />
</svg>