<?xml version="1.0" encoding="utf-8"?>
<svg version="1.1" xmlns:xlink="http://www.w3.org/1999/xlink" width="25px" height="25px" viewBox="952 475  25 25" xmlns="http://www.w3.org/2000/svg">
  <path d="M 964.5 475  C 971.5 475  977 480.5  977 487.5  C 977 494.5  971.5 500  964.5 500  C 957.5 500  952 494.5  952 487.5  C 952 480.5  957.5 475  964.5 475  Z " fill-rule="nonzero" fill="#ffffff" stroke="none" />
  <path d="M 964.5 475.5  C 971.22 475.5  976.5 480.78  976.5 487.5  C 976.5 494.22  971.22 499.5  964.5 499.5  C 957.78 499.5  952.5 494.22  952.5 487.5  C 952.5 480.78  957.78 475.5  964.5 475.5  Z " stroke-width="1" stroke="#8c8c8c" fill="none" />
  <path d="M 964.5 493.75  C 961 493.75  958.25 491  958.25 487.5  C 958.25 484  961 481.25  964.5 481.25  C 968 481.25  970.75 484  970.75 487.5  C 970.75 491  968 493.75  964.5 493.75  " fill-rule="nonzero" fill="#8c8c8c" stroke="none" />
</svg>