<?xml version="1.0" encoding="utf-8"?>
<svg version="1.1" xmlns:xlink="http://www.w3.org/1999/xlink" width="25px" height="25px" viewBox="1513 475  25 25" xmlns="http://www.w3.org/2000/svg">
  <path d="M 1525.5 475  C 1532.5 475  1538 480.5  1538 487.5  C 1538 494.5  1532.5 500  1525.5 500  C 1518.5 500  1513 494.5  1513 487.5  C 1513 480.5  1518.5 475  1525.5 475  Z " fill-rule="nonzero" fill="#f0f0f0" stroke="none" />
  <path d="M 1525.5 475.5  C 1532.22 475.5  1537.5 480.78  1537.5 487.5  C 1537.5 494.22  1532.22 499.5  1525.5 499.5  C 1518.78 499.5  1513.5 494.22  1513.5 487.5  C 1513.5 480.78  1518.78 475.5  1525.5 475.5  Z " stroke-width="1" stroke="#8c8c8c" fill="none" />
  <path d="M 1525.5 493.75  C 1522 493.75  1519.25 491  1519.25 487.5  C 1519.25 484  1522 481.25  1525.5 481.25  C 1529 481.25  1531.75 484  1531.75 487.5  C 1531.75 491  1529 493.75  1525.5 493.75  " fill-rule="nonzero" fill="#8c8c8c" stroke="none" />
</svg>