<?xml version="1.0" encoding="utf-8"?>
<svg version="1.1" xmlns:xlink="http://www.w3.org/1999/xlink" width="25px" height="25px" viewBox="106 444  25 25" xmlns="http://www.w3.org/2000/svg">
  <path d="M 118.5 444  C 125.5 444  131 449.5  131 456.5  C 131 463.5  125.5 469  118.5 469  C 111.5 469  106 463.5  106 456.5  C 106 449.5  111.5 444  118.5 444  Z " fill-rule="nonzero" fill="#ffffff" stroke="none" />
  <path d="M 118.5 444.5  C 125.22 444.5  130.5 449.78  130.5 456.5  C 130.5 463.22  125.22 468.5  118.5 468.5  C 111.78 468.5  106.5 463.22  106.5 456.5  C 106.5 449.78  111.78 444.5  118.5 444.5  Z " stroke-width="1" stroke="#8c8c8c" fill="none" />
  <path d="M 118.5 462.75  C 115 462.75  112.25 460  112.25 456.5  C 112.25 453  115 450.25  118.5 450.25  C 122 450.25  124.75 453  124.75 456.5  C 124.75 460  122 462.75  118.5 462.75  " fill-rule="nonzero" fill="#8c8c8c" stroke="none" />
</svg>