<?xml version="1.0" encoding="utf-8"?>
<svg version="1.1" xmlns:xlink="http://www.w3.org/1999/xlink" width="25px" height="25px" viewBox="106 381  25 25" xmlns="http://www.w3.org/2000/svg">
  <path d="M 118.5 381  C 125.5 381  131 386.5  131 393.5  C 131 400.5  125.5 406  118.5 406  C 111.5 406  106 400.5  106 393.5  C 106 386.5  111.5 381  118.5 381  Z " fill-rule="nonzero" fill="#f0f0f0" stroke="none" />
  <path d="M 118.5 381.5  C 125.22 381.5  130.5 386.78  130.5 393.5  C 130.5 400.22  125.22 405.5  118.5 405.5  C 111.78 405.5  106.5 400.22  106.5 393.5  C 106.5 386.78  111.78 381.5  118.5 381.5  Z " stroke-width="1" stroke="#8c8c8c" fill="none" />
  <path d="M 118.5 399.75  C 115 399.75  112.25 397  112.25 393.5  C 112.25 390  115 387.25  118.5 387.25  C 122 387.25  124.75 390  124.75 393.5  C 124.75 397  122 399.75  118.5 399.75  " fill-rule="nonzero" fill="#8c8c8c" stroke="none" />
</svg>