<?xml version="1.0" encoding="utf-8"?>
<svg version="1.1" xmlns:xlink="http://www.w3.org/1999/xlink" width="86px" height="36px" xmlns="http://www.w3.org/2000/svg">
  <g transform="matrix(1 0 0 1 -1370 -695 )">
    <path d="M 1371 713  A 17 17 0 0 1 1388 696 L 1438 696  A 17 17 0 0 1 1455 713 A 17 17 0 0 1 1438 730 L 1388 730  A 17 17 0 0 1 1371 713 Z " fill-rule="nonzero" fill="#dfdfdf" stroke="none" fill-opacity="0" />
    <path d="M 1370.5 713  A 17.5 17.5 0 0 1 1388 695.5 L 1438 695.5  A 17.5 17.5 0 0 1 1455.5 713 A 17.5 17.5 0 0 1 1438 730.5 L 1388 730.5  A 17.5 17.5 0 0 1 1370.5 713 Z " stroke-width="1" stroke="#090909" fill="none" stroke-opacity="0.654901960784314" />
  </g>
</svg>