<?xml version="1.0" encoding="utf-8"?>
<svg version="1.1" xmlns:xlink="http://www.w3.org/1999/xlink" width="45px" height="23px" xmlns="http://www.w3.org/2000/svg">
  <g transform="matrix(1 0 0 1 -1607 -676 )">
    <path d="M 1.12060546875 15.965234375  C 0.37353515625 14.545703125  0 13.0572916666667  0 11.5  C 0 9.94270833333333  0.37353515625 8.454296875  1.12060546875 7.034765625  C 1.86767578125 5.615234375  2.867431640625 4.393359375  4.119873046875 3.369140625  C 5.372314453125 2.344921875  6.866455078125 1.52734375  8.602294921875 0.916406249999999  C 10.338134765625 0.305468750000001  12.158203125 0  14.0625 0  L 30.9375 0  C 32.841796875 0  34.661865234375 0.305468750000001  36.397705078125 0.916406249999999  C 38.133544921875 1.52734375  39.627685546875 2.344921875  40.880126953125 3.369140625  C 42.132568359375 4.393359375  43.13232421875 5.615234375  43.87939453125 7.034765625  C 44.62646484375 8.454296875  45 9.94270833333333  45 11.5  C 45 13.0572916666667  44.62646484375 14.545703125  43.87939453125 15.965234375  C 43.13232421875 17.384765625  42.132568359375 18.606640625  40.880126953125 19.630859375  C 39.627685546875 20.655078125  38.133544921875 21.47265625  36.397705078125 22.08359375  C 34.661865234375 22.69453125  32.841796875 23  30.9375 23  L 14.0625 23  C 12.158203125 23  10.338134765625 22.69453125  8.602294921875 22.08359375  C 6.866455078125 21.47265625  5.372314453125 20.655078125  4.119873046875 19.630859375  C 2.867431640625 18.606640625  1.86767578125 17.384765625  1.12060546875 15.965234375  Z M 26.575927734375 19.972265625  C 27.960205078125 20.457421875  29.4140625 20.7  30.9375 20.7  C 32.4609375 20.7  33.914794921875 20.457421875  35.299072265625 19.972265625  C 36.683349609375 19.487109375  37.880859375 18.83125  38.8916015625 18.0046875  C 39.90234375 17.178125  40.704345703125 16.198828125  41.297607421875 15.066796875  C 41.890869140625 13.934765625  42.1875 12.7458333333333  42.1875 11.5  C 42.1875 10.2541666666667  41.890869140625 9.065234375  41.297607421875 7.933203125  C 40.704345703125 6.801171875  39.90234375 5.821875  38.8916015625 4.9953125  C 37.880859375 4.16875  36.683349609375 3.512890625  35.299072265625 3.027734375  C 33.914794921875 2.542578125  32.4609375 2.3  30.9375 2.3  C 29.4140625 2.3  27.960205078125 2.542578125  26.575927734375 3.027734375  C 25.191650390625 3.512890625  23.994140625 4.16875  22.9833984375 4.9953125  C 21.97265625 5.821875  21.170654296875 6.801171875  20.577392578125 7.933203125  C 19.984130859375 9.065234375  19.6875 10.2541666666667  19.6875 11.5  C 19.6875 12.7458333333333  19.984130859375 13.934765625  20.577392578125 15.066796875  C 21.170654296875 16.198828125  21.97265625 17.178125  22.9833984375 18.0046875  C 23.994140625 18.83125  25.191650390625 19.487109375  26.575927734375 19.972265625  Z " fill-rule="nonzero" fill="#286eff" stroke="none" transform="matrix(1 0 0 1 1607 676 )" />
  </g>
</svg>