<?xml version="1.0" encoding="utf-8"?>
<svg version="1.1" xmlns:xlink="http://www.w3.org/1999/xlink" width="45px" height="26px" xmlns="http://www.w3.org/2000/svg">
  <g transform="matrix(1 0 0 1 -1607 -570 )">
    <path d="M 24.422607421875 17.03203125  C 25.015869140625 15.75234375  25.3125 14.4083333333333  25.3125 13  C 25.3125 11.5916666666667  25.015869140625 10.24765625  24.422607421875 8.96796875  C 23.829345703125 7.68828125  23.02734375 6.58125  22.0166015625 5.646875  C 21.005859375 4.7125  19.808349609375 3.97109375  18.424072265625 3.42265625  C 17.039794921875 2.87421875  15.5859375 2.6  14.0625 2.6  C 12.5390625 2.6  11.085205078125 2.87421875  9.700927734375 3.42265625  C 8.316650390625 3.97109375  7.119140625 4.7125  6.1083984375 5.646875  C 5.09765625 6.58125  4.295654296875 7.68828125  3.702392578125 8.96796875  C 3.109130859375 10.24765625  2.8125 11.5916666666667  2.8125 13  C 2.8125 14.4083333333333  3.109130859375 15.75234375  3.702392578125 17.03203125  C 4.295654296875 18.31171875  5.09765625 19.41875  6.1083984375 20.353125  C 7.119140625 21.2875  8.316650390625 22.02890625  9.700927734375 22.57734375  C 11.085205078125 23.12578125  12.5390625 23.4  14.0625 23.4  C 15.5859375 23.4  17.039794921875 23.12578125  18.424072265625 22.57734375  C 19.808349609375 22.02890625  21.005859375 21.2875  22.0166015625 20.353125  C 23.02734375 19.41875  23.829345703125 18.31171875  24.422607421875 17.03203125  Z M 41.297607421875 17.03203125  C 41.890869140625 15.75234375  42.1875 14.4083333333333  42.1875 13  C 42.1875 11.5916666666667  41.890869140625 10.24765625  41.297607421875 8.96796875  C 40.704345703125 7.68828125  39.90234375 6.58125  38.8916015625 5.646875  C 37.880859375 4.7125  36.683349609375 3.97109375  35.299072265625 3.42265625  C 33.914794921875 2.87421875  32.4609375 2.6  30.9375 2.6  L 22.4560546875 2.6  C 24.19921875 3.81875  25.579833984375 5.33541666666666  26.597900390625 7.15  C 27.615966796875 8.96458333333333  28.125 10.9145833333333  28.125 13  C 28.125 15.0854166666667  27.615966796875 17.0354166666667  26.597900390625 18.85  C 25.579833984375 20.6645833333333  24.19921875 22.18125  22.4560546875 23.4  L 30.9375 23.4  C 32.4609375 23.4  33.914794921875 23.12578125  35.299072265625 22.57734375  C 36.683349609375 22.02890625  37.880859375 21.2875  38.8916015625 20.353125  C 39.90234375 19.41875  40.704345703125 18.31171875  41.297607421875 17.03203125  Z M 43.87939453125 7.95234375  C 44.62646484375 9.55703125  45 11.2395833333333  45 13  C 45 14.7604166666667  44.62646484375 16.44296875  43.87939453125 18.04765625  C 43.13232421875 19.65234375  42.132568359375 21.03359375  40.880126953125 22.19140625  C 39.627685546875 23.34921875  38.133544921875 24.2734375  36.397705078125 24.9640625  C 34.661865234375 25.6546875  32.841796875 26  30.9375 26  L 14.0625 26  C 12.158203125 26  10.338134765625 25.6546875  8.602294921875 24.9640625  C 6.866455078125 24.2734375  5.372314453125 23.34921875  4.119873046875 22.19140625  C 2.867431640625 21.03359375  1.86767578125 19.65234375  1.12060546875 18.04765625  C 0.37353515625 16.44296875  0 14.7604166666667  0 13  C 0 11.2395833333333  0.37353515625 9.55703125  1.12060546875 7.95234375  C 1.86767578125 6.34765625  2.867431640625 4.96640625  4.119873046875 3.80859375  C 5.372314453125 2.65078125  6.866455078125 1.7265625  8.602294921875 1.0359375  C 10.338134765625 0.345312500000001  12.158203125 0  14.0625 0  L 30.9375 0  C 32.841796875 0  34.661865234375 0.345312500000001  36.397705078125 1.0359375  C 38.133544921875 1.7265625  39.627685546875 2.65078125  40.880126953125 3.80859375  C 42.132568359375 4.96640625  43.13232421875 6.34765625  43.87939453125 7.95234375  Z " fill-rule="nonzero" fill="#666666" stroke="none" transform="matrix(1 0 0 1 1607 570 )" />
  </g>
</svg>