<?xml version="1.0" encoding="utf-8"?>
<svg version="1.1" xmlns:xlink="http://www.w3.org/1999/xlink" width="57px" height="38px" xmlns="http://www.w3.org/2000/svg">
  <g transform="matrix(1 0 0 1 -4324 -736 )">
    <path d="M 30.935302734375 24.89296875  C 31.686767578125 23.02265625  32.0625 21.0583333333333  32.0625 19  C 32.0625 16.9416666666667  31.686767578125 14.97734375  30.935302734375 13.10703125  C 30.183837890625 11.23671875  29.16796875 9.61875  27.8876953125 8.253125  C 26.607421875 6.8875  25.090576171875 5.80390625  23.337158203125 5.00234375  C 21.583740234375 4.20078125  19.7421875 3.8  17.8125 3.8  C 15.8828125 3.8  14.041259765625 4.20078125  12.287841796875 5.00234375  C 10.534423828125 5.80390625  9.017578125 6.8875  7.7373046875 8.253125  C 6.45703125 9.61875  5.441162109375 11.23671875  4.689697265625 13.10703125  C 3.938232421875 14.97734375  3.5625 16.9416666666667  3.5625 19  C 3.5625 21.0583333333333  3.938232421875 23.02265625  4.689697265625 24.89296875  C 5.441162109375 26.76328125  6.45703125 28.38125  7.7373046875 29.746875  C 9.017578125 31.1125  10.534423828125 32.19609375  12.287841796875 32.99765625  C 14.041259765625 33.79921875  15.8828125 34.2  17.8125 34.2  C 19.7421875 34.2  21.583740234375 33.79921875  23.337158203125 32.99765625  C 25.090576171875 32.19609375  26.607421875 31.1125  27.8876953125 29.746875  C 29.16796875 28.38125  30.183837890625 26.76328125  30.935302734375 24.89296875  Z M 52.310302734375 24.89296875  C 53.061767578125 23.02265625  53.4375 21.0583333333333  53.4375 19  C 53.4375 16.9416666666667  53.061767578125 14.97734375  52.310302734375 13.10703125  C 51.558837890625 11.23671875  50.54296875 9.61875  49.2626953125 8.253125  C 47.982421875 6.8875  46.465576171875 5.80390625  44.712158203125 5.00234375  C 42.958740234375 4.20078125  41.1171875 3.8  39.1875 4  L 28.4443359375 4  C 30.65234375 5.58125  32.401123046875 7.79791666666666  33.690673828125 10.45  C 34.980224609375 13.1020833333333  35.625 15.9520833333333  35.625 19  C 35.625 22.0479166666667  34.980224609375 24.8979166666667  33.690673828125 27.55  C 32.401123046875 30.2020833333333  30.65234375 32.41875  28.4443359375 34  L 39.1875 34  C 41.1171875 34.2  42.958740234375 33.79921875  44.712158203125 32.99765625  C 46.465576171875 32.19609375  47.982421875 31.1125  49.2626953125 29.746875  C 50.54296875 28.38125  51.558837890625 26.76328125  52.310302734375 24.89296875  Z M 55.58056640625 11.62265625  C 56.52685546875 13.96796875  57 16.4270833333333  57 19  C 57 21.5729166666667  56.52685546875 24.03203125  55.58056640625 26.37734375  C 54.63427734375 28.72265625  53.367919921875 30.74140625  51.781494140625 32.43359375  C 50.195068359375 34.12578125  48.302490234375 35.4765625  46.103759765625 36.4859375  C 43.905029296875 37.4953125  41.599609375 38  39.1875 38  L 17.8125 38  C 15.400390625 38  13.094970703125 37.4953125  10.896240234375 36.4859375  C 8.697509765625 35.4765625  6.804931640625 34.12578125  5.218505859375 32.43359375  C 3.632080078125 30.74140625  2.36572265625 28.72265625  1.41943359375 26.37734375  C 0.47314453125 24.03203125  0 21.5729166666667  0 19  C 0 16.4270833333333  0.47314453125 13.96796875  1.41943359375 11.62265625  C 2.36572265625 9.27734375  3.632080078125 7.25859375  5.218505859375 5.56640625  C 6.804931640625 3.87421875  8.697509765625 2.5234375  10.896240234375 1.5140625  C 13.094970703125 0.504687500000001  15.400390625 0  17.8125 0  L 39.1875 0  C 41.599609375 0  43.905029296875 0.504687500000001  46.103759765625 1.5140625  C 48.302490234375 2.5234375  50.195068359375 3.87421875  51.781494140625 5.56640625  C 53.367919921875 7.25859375  54.63427734375 9.27734375  55.58056640625 11.62265625  Z " fill-rule="nonzero" fill="#666666" stroke="none" transform="matrix(1 0 0 1 4324 736 )" />
  </g>
</svg>