<?xml version="1.0" encoding="utf-8"?>
<svg version="1.1" xmlns:xlink="http://www.w3.org/1999/xlink" width="57px" height="35px" xmlns="http://www.w3.org/2000/svg">
  <g transform="matrix(1 0 0 1 -4324 -812 )">
    <path d="M 1.41943359375 24.294921875  C 0.47314453125 22.134765625  0 19.8697916666667  0 17.5  C 0 15.1302083333333  0.47314453125 12.865234375  1.41943359375 10.705078125  C 2.36572265625 8.544921875  3.632080078125 6.685546875  5.218505859375 5.126953125  C 6.804931640625 3.568359375  8.697509765625 2.32421875  10.896240234375 1.39453125  C 13.094970703125 0.464843750000001  15.400390625 0  17.8125 0  L 39.1875 0  C 41.599609375 0  43.905029296875 0.464843750000001  46.103759765625 1.39453125  C 48.302490234375 2.32421875  50.195068359375 3.568359375  51.781494140625 5.126953125  C 53.367919921875 6.685546875  54.63427734375 8.544921875  55.58056640625 10.705078125  C 56.52685546875 12.865234375  57 15.1302083333333  57 17.5  C 57 19.8697916666667  56.52685546875 22.134765625  55.58056640625 24.294921875  C 54.63427734375 26.455078125  53.367919921875 28.314453125  51.781494140625 29.873046875  C 50.195068359375 31.431640625  48.302490234375 32.67578125  46.103759765625 33.60546875  C 43.905029296875 34.53515625  41.599609375 35  39.1875 35  L 17.8125 35  C 15.400390625 35  13.094970703125 34.53515625  10.896240234375 33.60546875  C 8.697509765625 32.67578125  6.804931640625 31.431640625  5.218505859375 29.873046875  C 3.632080078125 28.314453125  2.36572265625 26.455078125  1.41943359375 24.294921875  Z M 33.662841796875 30.392578125  C 35.416259765625 31.130859375  37.2578125 31.5  39.1875 31.5  C 41.1171875 31.5  42.958740234375 31.130859375  44.712158203125 30.392578125  C 46.465576171875 29.654296875  47.982421875 28.65625  49.2626953125 27.3984375  C 50.54296875 26.140625  51.558837890625 24.650390625  52.310302734375 22.927734375  C 53.061767578125 21.205078125  53.4375 19.3958333333333  53.4375 17.5  C 53.4375 15.6041666666667  53.061767578125 13.794921875  52.310302734375 12.072265625  C 51.558837890625 10.349609375  50.54296875 8.859375  49.2626953125 7.6015625  C 47.982421875 6.34375  46.465576171875 5.345703125  44.712158203125 4.607421875  C 42.958740234375 3.869140625  41.1171875 3.5  39.1875 3.5  C 37.2578125 3.5  35.416259765625 3.869140625  33.662841796875 4.607421875  C 31.909423828125 5.345703125  30.392578125 6.34375  29.1123046875 7.6015625  C 27.83203125 8.859375  26.816162109375 10.349609375  26.064697265625 12.072265625  C 25.313232421875 13.794921875  24.9375 15.6041666666667  24.9375 17.5  C 24.9375 19.3958333333333  25.313232421875 21.205078125  26.064697265625 22.927734375  C 26.816162109375 24.650390625  27.83203125 26.140625  29.1123046875 27.3984375  C 30.392578125 28.65625  31.909423828125 29.654296875  33.662841796875 30.392578125  Z " fill-rule="nonzero" fill="#286eff" stroke="none" transform="matrix(1 0 0 1 4324 812 )" />
  </g>
</svg>