<svg t="1650938791942" class="icon" viewBox="0 0 1024 1024" version="1.1" xmlns="http://www.w3.org/2000/svg" p-id="2406" width="200" height="200"><path d="M761.856 857.216c0 14.592-16.512 26.88-35.968 26.88H272.512c-19.456 0-35.968-12.288-35.968-26.88V618.24c-19.328-6.016-36.736-16.384-51.2-29.952v268.928c0 43.008 39.168 78.08 87.168 78.08h453.376c48.128 0 87.168-35.072 87.168-78.08V588.16a134.2464 134.2464 0 0 1-51.2 30.08v238.976z" p-id="2407" fill="#2c2c2c"></path><path d="M613.504 652.928h51.2v149.248h-51.2zM856.064 428.16l-32.384-135.936a51.0848 51.0848 0 0 0-49.92-39.552l-549.12 0.128a51.008 51.008 0 0 0-49.92 39.424l-32.256 135.936c-0.512 1.92-0.768 3.968-0.768 6.016 0 39.296 16.768 74.88 43.648 99.712 14.464 13.568 31.872 23.936 51.2 29.952 13.056 4.224 27.008 6.528 41.472 6.528 44.8 0 85.376-21.76 110.592-56.704 24.96 34.688 65.664 56.576 110.592 56.576s85.504-21.632 110.592-56.576c24.96 34.816 65.664 56.576 110.72 56.576 14.336 0 28.288-2.176 41.344-6.4 19.328-6.144 36.736-16.512 51.2-30.08 26.88-24.832 43.648-60.288 43.648-99.712 0-1.92-0.256-3.968-0.64-5.888z m-135.552 90.88c-39.296 0-73.344-26.624-82.56-64.64-2.944-11.648-8.32-18.176-13.696-21.76-5.504-3.584-11.136-4.224-14.464-4.224-6.528 0-22.272 2.56-27.904 25.728A84.7872 84.7872 0 0 1 499.2 519.04c-38.912 0-72.704-26.24-82.432-63.872-5.888-23.296-21.632-25.856-28.16-25.856h-0.128c-6.4 0-22.272 2.56-28.032 25.728a85.0176 85.0176 0 0 1-82.432 64.128c-45.952 0-83.584-36.608-84.992-82.304l31.488-132.736-24.96-6.016 25.088 5.888h549.248l31.616 132.864c-1.536 45.568-39.04 82.176-84.992 82.176z" p-id="2408" fill="#2c2c2c"></path></svg>