<?xml version="1.0" encoding="utf-8"?>
<svg version="1.1" xmlns:xlink="http://www.w3.org/1999/xlink" width="89px" height="30px" xmlns="http://www.w3.org/2000/svg">
  <g transform="matrix(1 0 0 1 -1297 -1383 )">
    <path d="M 1298 1398  A 14 14 0 0 1 1312 1384 L 1371 1384  A 14 14 0 0 1 1385 1398 A 14 14 0 0 1 1371 1412 L 1312 1412  A 14 14 0 0 1 1298 1398 Z " fill-rule="nonzero" fill="#dfdfdf" stroke="none" fill-opacity="0" />
    <path d="M 1297.5 1398  A 14.5 14.5 0 0 1 1312 1383.5 L 1371 1383.5  A 14.5 14.5 0 0 1 1385.5 1398 A 14.5 14.5 0 0 1 1371 1412.5 L 1312 1412.5  A 14.5 14.5 0 0 1 1297.5 1398 Z " stroke-width="1" stroke="#090909" fill="none" stroke-opacity="0.654901960784314" />
  </g>
</svg>