<?xml version="1.0" encoding="utf-8"?>
<svg version="1.1" xmlns:xlink="http://www.w3.org/1999/xlink" width="76px" height="31px" xmlns="http://www.w3.org/2000/svg">
  <g transform="matrix(1 0 0 1 -4210 -480 )">
    <path d="M 4211 483  A 2 2 0 0 1 4213 481 L 4283 481  A 2 2 0 0 1 4285 483 L 4285 508  A 2 2 0 0 1 4283 510 L 4213 510  A 2 2 0 0 1 4211 508 L 4211 483  Z " fill-rule="nonzero" fill="#ffffff" stroke="none" />
    <path d="M 4210.5 483  A 2.5 2.5 0 0 1 4213 480.5 L 4283 480.5  A 2.5 2.5 0 0 1 4285.5 483 L 4285.5 508  A 2.5 2.5 0 0 1 4283 510.5 L 4213 510.5  A 2.5 2.5 0 0 1 4210.5 508 L 4210.5 483  Z " stroke-width="1" stroke="#007aff" fill="none" stroke-opacity="0.36078431372549" />
  </g>
</svg>