<?xml version="1.0" encoding="utf-8"?>
<svg version="1.1" xmlns:xlink="http://www.w3.org/1999/xlink" width="76px" height="31px" xmlns="http://www.w3.org/2000/svg">
  <g transform="matrix(1 0 0 1 -2984 -480 )">
    <path d="M 2985 483  A 2 2 0 0 1 2987 481 L 3057 481  A 2 2 0 0 1 3059 483 L 3059 508  A 2 2 0 0 1 3057 510 L 2987 510  A 2 2 0 0 1 2985 508 L 2985 483  Z " fill-rule="nonzero" fill="#ffffff" stroke="none" />
    <path d="M 2984.5 483  A 2.5 2.5 0 0 1 2987 480.5 L 3057 480.5  A 2.5 2.5 0 0 1 3059.5 483 L 3059.5 508  A 2.5 2.5 0 0 1 3057 510.5 L 2987 510.5  A 2.5 2.5 0 0 1 2984.5 508 L 2984.5 483  Z " stroke-width="1" stroke="#ff1010" fill="none" stroke-opacity="0.96078431372549" />
  </g>
</svg>