<?xml version="1.0" encoding="utf-8"?>
<svg version="1.1" xmlns:xlink="http://www.w3.org/1999/xlink" width="16px" height="16px" viewBox="6637 1437  16 16" xmlns="http://www.w3.org/2000/svg">
  <path d="M 6645 1437  C 6649.48 1437  6653 1440.52  6653 1445  C 6653 1449.48  6649.48 1453  6645 1453  C 6640.52 1453  6637 1449.48  6637 1445  C 6637 1440.52  6640.52 1437  6645 1437  Z " fill-rule="nonzero" fill="#ffffff" stroke="none" />
  <path d="M 6645 1437.5  C 6649.2 1437.5  6652.5 1440.8  6652.5 1445  C 6652.5 1449.2  6649.2 1452.5  6645 1452.5  C 6640.8 1452.5  6637.5 1449.2  6637.5 1445  C 6637.5 1440.8  6640.8 1437.5  6645 1437.5  Z " stroke-width="1" stroke="#8c8c8c" fill="none" />
  <path d="M 6645 1449  C 6642.76 1449  6641 1447.24  6641 1445  C 6641 1442.76  6642.76 1441  6645 1441  C 6647.24 1441  6649 1442.76  6649 1445  C 6649 1447.24  6647.24 1449  6645 1449  " fill-rule="nonzero" fill="#8c8c8c" stroke="none" />
</svg>