<?xml version="1.0" encoding="utf-8"?>
<svg version="1.1" xmlns:xlink="http://www.w3.org/1999/xlink" width="16px" height="16px" viewBox="6526 1437  16 16" xmlns="http://www.w3.org/2000/svg">
  <path d="M 6534 1437  C 6538.48 1437  6542 1440.52  6542 1445  C 6542 1449.48  6538.48 1453  6534 1453  C 6529.52 1453  6526 1449.48  6526 1445  C 6526 1440.52  6529.52 1437  6534 1437  Z " fill-rule="nonzero" fill="#f0f0f0" stroke="none" />
  <path d="M 6534 1437.5  C 6538.2 1437.5  6541.5 1440.8  6541.5 1445  C 6541.5 1449.2  6538.2 1452.5  6534 1452.5  C 6529.8 1452.5  6526.5 1449.2  6526.5 1445  C 6526.5 1440.8  6529.8 1437.5  6534 1437.5  Z " stroke-width="1" stroke="#8c8c8c" fill="none" />
  <path d="M 6534 1449  C 6531.76 1449  6530 1447.24  6530 1445  C 6530 1442.76  6531.76 1441  6534 1441  C 6536.24 1441  6538 1442.76  6538 1445  C 6538 1447.24  6536.24 1449  6534 1449  " fill-rule="nonzero" fill="#8c8c8c" stroke="none" />
</svg>