<?xml version="1.0" encoding="utf-8"?>
<svg version="1.1" xmlns:xlink="http://www.w3.org/1999/xlink" width="8px" height="8px" xmlns="http://www.w3.org/2000/svg">
  <g transform="matrix(1 0 0 1 -1898 -231 )">
    <path d="M 0.529999999999973 3.775  C 0.529999999999973 5.6942  2.07999999999993 7.25  4 7.25  C 5.92000000000007 7.25  7.47000000000003 5.6942  7.47000000000003 3.775  C 7.47000000000003 1.8558  5.92000000000007 0.300000000000001  4 0.300000000000001  C 2.07999999999993 0.300000000000001  0.529999999999973 1.8558  0.529999999999973 3.775  Z M 6.22000000000003 3.775  C 6.22000000000003 5.0038  5.23000000000002 6  4 6  C 2.76999999999998 6  1.77999999999997 5.0038  1.77999999999997 3.775  C 1.77999999999997 2.5462  2.76999999999998 1.55  4 1.55  C 5.23000000000002 1.55  6.22000000000003 2.5462  6.22000000000003 3.775  Z " fill-rule="nonzero" fill="#000000" stroke="none" transform="matrix(1 0 0 1 1898 231 )" />
  </g>
</svg>