<?xml version="1.0" encoding="utf-8"?>
<svg version="1.1" xmlns:xlink="http://www.w3.org/1999/xlink" width="18px" height="18px" xmlns="http://www.w3.org/2000/svg">
  <g transform="matrix(1 0 0 1 -1893 -228 )">
    <path d="M 0.25 9  C 0.25 13.8325  4.17000000000007 17.75  9 17.75  C 13.8299999999999 17.75  17.75 13.8325  17.75 9  C 17.75 4.1675  13.8299999999999 0.25  9 0.25  C 4.17000000000007 0.25  0.25 4.1675  0.25 9  Z M 16.5 9  C 16.5 10.5371  16.04 11.9662  15.24 13.1557  C 13.3399999999999 12.0956  11.23 11.5  9 11.5  C 6.76999999999998 11.5  4.66000000000008 12.0956  2.75999999999999 13.1557  C 1.96000000000004 11.9661  1.5 10.5371  1.5 9  C 1.5 4.8579  4.8599999999999 1.5  9 1.5  C 13.1400000000001 1.5  16.5 4.8579  16.5 9  Z M 9 12.75  C 10.9300000000001 12.75  12.77 13.247  14.45 14.1482  C 13.0899999999999 15.5963  11.1500000000001 16.5  9 16.5  C 6.84999999999991 16.5  4.91000000000008 15.5963  3.54999999999995 14.1482  C 5.23000000000002 13.247  7.06999999999994 12.75  9 12.75  Z " fill-rule="nonzero" fill="#000000" stroke="none" transform="matrix(1 0 0 1 1893 228 )" />
  </g>
</svg>