<?xml version="1.0" encoding="utf-8"?>
<svg version="1.1" xmlns:xlink="http://www.w3.org/1999/xlink" width="225px" height="48px" xmlns="http://www.w3.org/2000/svg">
  <defs>
    <mask fill="white" id="clip228">
      <path d="M 0 42  L 0 6  C 0 2.64000000000033  1.50000000000022 0  3.40909090909097 0  L 14.9147727272726 0  L 64.5028957528958 0  L 221.590909090909 0  C 223.5 0  225 2.64000000000033  225 6  L 225 42  C 225 45.3599999999997  223.5 48  221.590909090909 48  L 3.40909090909097 48  C 1.50000000000022 48  0 45.3599999999997  0 42  Z " fill-rule="evenodd" />
    </mask>
  </defs>
  <g transform="matrix(1 0 0 1 -4400 -2075 )">
    <path d="M 0 42  L 0 6  C 0 2.64000000000033  1.50000000000022 0  3.40909090909097 0  L 14.9147727272726 0  L 64.5028957528958 0  L 221.590909090909 0  C 223.5 0  225 2.64000000000033  225 6  L 225 42  C 225 45.3599999999997  223.5 48  221.590909090909 48  L 3.40909090909097 48  C 1.50000000000022 48  0 45.3599999999997  0 42  Z " fill-rule="nonzero" fill="#ffffff" stroke="none" transform="matrix(1 0 0 1 4400 2075 )" />
    <path d="M 0 42  L 0 6  C 0 2.64000000000033  1.50000000000022 0  3.40909090909097 0  L 14.9147727272726 0  L 64.5028957528958 0  L 221.590909090909 0  C 223.5 0  225 2.64000000000033  225 6  L 225 42  C 225 45.3599999999997  223.5 48  221.590909090909 48  L 3.40909090909097 48  C 1.50000000000022 48  0 45.3599999999997  0 42  Z " stroke-width="2" stroke="#d9d9d9" fill="none" transform="matrix(1 0 0 1 4400 2075 )" mask="url(#clip228)" />
  </g>
</svg>