<?xml version="1.0" encoding="utf-8"?>
<svg version="1.1" xmlns:xlink="http://www.w3.org/1999/xlink" width="222px" height="48px" xmlns="http://www.w3.org/2000/svg">
  <defs>
    <mask fill="white" id="clip229">
      <path d="M 0 42  L 0 6  C 0 2.64000000000033  1.48000000000021 0  3.36363636363642 0  L 14.715909090909 0  L 63.6428571428571 0  L 218.636363636364 0  C 220.52 0  222 2.64000000000033  222 6  L 222 42  C 222 45.3599999999997  220.52 48  218.636363636364 48  L 3.36363636363642 48  C 1.48000000000021 48  0 45.3599999999997  0 42  Z " fill-rule="evenodd" />
    </mask>
  </defs>
  <g transform="matrix(1 0 0 1 -4664 -2075 )">
    <path d="M 0 42  L 0 6  C 0 2.64000000000033  1.48000000000021 0  3.36363636363642 0  L 14.715909090909 0  L 63.6428571428571 0  L 218.636363636364 0  C 220.52 0  222 2.64000000000033  222 6  L 222 42  C 222 45.3599999999997  220.52 48  218.636363636364 48  L 3.36363636363642 48  C 1.48000000000021 48  0 45.3599999999997  0 42  Z " fill-rule="nonzero" fill="#ffffff" stroke="none" transform="matrix(1 0 0 1 4664 2075 )" />
    <path d="M 0 42  L 0 6  C 0 2.64000000000033  1.48000000000021 0  3.36363636363642 0  L 14.715909090909 0  L 63.6428571428571 0  L 218.636363636364 0  C 220.52 0  222 2.64000000000033  222 6  L 222 42  C 222 45.3599999999997  220.52 48  218.636363636364 48  L 3.36363636363642 48  C 1.48000000000021 48  0 45.3599999999997  0 42  Z " stroke-width="2" stroke="#d9d9d9" fill="none" transform="matrix(1 0 0 1 4664 2075 )" mask="url(#clip229)" />
  </g>
</svg>