<?xml version="1.0" encoding="utf-8"?>
<svg version="1.1" xmlns:xlink="http://www.w3.org/1999/xlink" width="214px" height="48px" xmlns="http://www.w3.org/2000/svg">
  <defs>
    <mask fill="white" id="clip230">
      <path d="M 0 42  L 0 6  C 0 2.64000000000033  1.42666666666687 0  3.2424242424243 0  L 14.185606060606 0  L 61.3494208494208 0  L 210.757575757576 0  C 212.573333333333 0  214 2.64000000000033  214 6  L 214 42  C 214 45.3599999999997  212.573333333333 48  210.757575757576 48  L 3.2424242424243 48  C 1.42666666666687 48  0 45.3599999999997  0 42  Z " fill-rule="evenodd" />
    </mask>
  </defs>
  <g transform="matrix(1 0 0 1 -4936 -2075 )">
    <path d="M 0 42  L 0 6  C 0 2.64000000000033  1.42666666666687 0  3.2424242424243 0  L 14.185606060606 0  L 61.3494208494208 0  L 210.757575757576 0  C 212.573333333333 0  214 2.64000000000033  214 6  L 214 42  C 214 45.3599999999997  212.573333333333 48  210.757575757576 48  L 3.2424242424243 48  C 1.42666666666687 48  0 45.3599999999997  0 42  Z " fill-rule="nonzero" fill="#ffffff" stroke="none" transform="matrix(1 0 0 1 4936 2075 )" />
    <path d="M 0 42  L 0 6  C 0 2.64000000000033  1.42666666666687 0  3.2424242424243 0  L 14.185606060606 0  L 61.3494208494208 0  L 210.757575757576 0  C 212.573333333333 0  214 2.64000000000033  214 6  L 214 42  C 214 45.3599999999997  212.573333333333 48  210.757575757576 48  L 3.2424242424243 48  C 1.42666666666687 48  0 45.3599999999997  0 42  Z " stroke-width="2" stroke="#d9d9d9" fill="none" transform="matrix(1 0 0 1 4936 2075 )" mask="url(#clip230)" />
  </g>
</svg>