<?xml version="1.0" encoding="utf-8"?>
<svg version="1.1" xmlns:xlink="http://www.w3.org/1999/xlink" width="148px" height="48px" xmlns="http://www.w3.org/2000/svg">
  <defs>
    <mask fill="white" id="clip239">
      <path d="M 0 46  L 0 2  C 0 0.880000000000109  1.0096124031009 0  2.29457364341085 0  L 78.015503875969 0  L 145.705426356589 0  C 146.990387596899 0  148 0.880000000000109  148 2  L 148 46  C 148 47.1199999999999  146.990387596899 48  145.705426356589 48  L 2.29457364341085 48  C 1.0096124031009 48  0 47.1199999999999  0 46  Z " fill-rule="evenodd" />
    </mask>
  </defs>
  <g transform="matrix(1 0 0 1 -6826 -885 )">
    <path d="M 0 46  L 0 2  C 0 0.880000000000109  1.0096124031009 0  2.29457364341085 0  L 78.015503875969 0  L 145.705426356589 0  C 146.990387596899 0  148 0.880000000000109  148 2  L 148 46  C 148 47.1199999999999  146.990387596899 48  145.705426356589 48  L 2.29457364341085 48  C 1.0096124031009 48  0 47.1199999999999  0 46  Z " fill-rule="nonzero" fill="#286eff" stroke="none" fill-opacity="0" transform="matrix(1 0 0 1 6826 885 )" />
    <path d="M 0 46  L 0 2  C 0 0.880000000000109  1.0096124031009 0  2.29457364341085 0  L 78.015503875969 0  L 145.705426356589 0  C 146.990387596899 0  148 0.880000000000109  148 2  L 148 46  C 148 47.1199999999999  146.990387596899 48  145.705426356589 48  L 2.29457364341085 48  C 1.0096124031009 48  0 47.1199999999999  0 46  Z " stroke-width="2" stroke="#286eff" fill="none" transform="matrix(1 0 0 1 6826 885 )" mask="url(#clip239)" />
  </g>
</svg>