<?xml version="1.0" encoding="utf-8"?>
<svg version="1.1" xmlns:xlink="http://www.w3.org/1999/xlink" width="18px" height="18px" xmlns="http://www.w3.org/2000/svg">
  <g transform="matrix(1 0 0 1 -911 -452 )">
    <path d="M 13.3749999931641 1.34375000683594  L 13.3749999931641 2.00000000683594  L 14.9071250068359 2.00000000683594  C 16.2362499931641 2.00000000683594  17.3124999931641 3.07712499316406  17 4.40821875  L 17 14.9040624931641  C 17.3124999931641 16.2342812431641  16.2358125 17.3124999931641  14.9071250068359 17  L 3.09287499316406 17  C 1.76375000683594 17.3124999931641  0.687500006835938 16.2353750068359  1 14.90428125  L 1 4.40843750683594  C 0.687500006835938 3.07821875683594  1.7641875 2.00000000683594  3.09287499316406 2.00000000683594  L 4.62500000683594 2.00000000683594  L 4.62500000683594 1.34375000683594  C 4.62500000683594 0.981313139759479  4.91881313975948 0.687500006835937  5.28125000683594 0.687500006835937  C 5.6436868739124 0.687500006835937  5.93750000683594 0.981313139759479  5.93750000683594 1.34375000683594  L 5.93750000683594 2.00000000683594  L 12.0624999931641 2.00000000683594  L 12.0624999931641 1.34375000683594  C 12.0624999931641 0.981313139759479  12.3563131260876 0.687500006835937  12.7187499931641 0.687500006835937  C 13.0811868602405 0.687500006835937  13.3749999931641 0.981313139759479  13.3749999931641 1.34375000683594  Z M 14.9071250068359 3.31250000683594  L 13.3749999931641 3.31250000683594  L 13.3749999931641 3.96875000683594  C 13.3749999931641 4.33118687391239  13.0811868602405 4.62500000683594  12.7187499931641 4.62500000683594  C 12.3563131260876 4.62500000683594  12.0624999931641 4.33118687391239  12.0624999931641 3.96875000683594  L 12.0624999931641 3.31250000683594  L 5.93750000683594 3.31250000683594  L 5.93750000683594 3.96875000683594  C 5.93750000683594 4.33118687391239  5.6436868739124 4.62500000683594  5.28125000683594 4.62500000683594  C 4.91881313975948 4.62500000683594  4.62500000683594 4.33118687391239  4.62500000683594 3.96875000683594  L 4.62500000683594 3.31250000683594  L 3.09287499316406 3.31250000683594  C 2.48908444224284 3.31322368578683  1.999998934308 3.80289574314064  1.999998934308 4.40668672774788  C 1.999998934308 4.40719740202006  1.9999992918174 4.40770807622839  2 4.40821875  L 2 14.9040624931641  C 1.99999754072127 14.9050104171562  1.99999630766238 14.9059583439554  1.99999630766238 14.9069062711555  C 1.99999630766238 15.5105212921096  2.48925998389218 15.9998812366199  3.09287499316406 16  L 14.9071250068359 16  C 15.5109155577572 15.9992763142132  16.000001065692 15.5096042568594  16.000001065692 14.9058132722521  C 16.000001065692 14.9053025979806  16.0000007081826 14.9047919237709  16 14.90428125  L 16 4.40843750683594  C 16.0000024592787 4.40748958284416  16.0000036923376 4.40654165604424  16.0000036923376 4.40559372884454  C 16.0000036923376 3.80197870789044  15.5107400161078 3.3126187633801  14.9071250068359 3.31250000683594  Z M 4.84374999316406 7.90625000683594  L 13.1562500068359 7.90625000683594  C 13.5186868739124 7.90625000683594  13.8125000068359 8.20006313975948  13.8125000068359 8.56250000683594  C 13.8125000068359 8.9249368739124  13.5186868739124 9.21875000683594  13.1562500068359 9.21875000683594  L 4.84374999316406 9.21875000683594  C 4.4813131260876 9.21875000683594  4.18749999316406 8.9249368739124  4.18749999316406 8.56250000683594  C 4.18749999316406 8.20006313975948  4.4813131260876 7.90625000683594  4.84374999316406 7.90625000683594  Z M 4.84374999316406 11.1875000068359  L 10.5312500068359 11.1875000068359  C 10.8936868739124 11.1875000068359  11.1875000068359 11.4813131397595  11.1875000068359 11.8437500068359  C 11.1875000068359 12.2061868739124  10.8936868739124 12.5000000068359  10.5312500068359 12.5000000068359  L 4.84374999316406 12.5000000068359  C 4.4813131260876 12.5000000068359  4.18749999316406 12.2061868739124  4.18749999316406 11.8437500068359  C 4.18749999316406 11.4813131397595  4.4813131260876 11.1875000068359  4.84374999316406 11.1875000068359  Z " fill-rule="nonzero" fill="#8a8a8a" stroke="none" fill-opacity="0.717647058823529" transform="matrix(1 0 0 1 911 452 )" />
  </g>
</svg>