<?xml version="1.0" encoding="utf-8"?>
<svg version="1.1" xmlns:xlink="http://www.w3.org/1999/xlink" width="12px" height="7px" xmlns="http://www.w3.org/2000/svg">
  <g transform="matrix(1 0 0 1 -672 -737 )">
    <path d="M 8.83855734971098 1.22946348554913  L 5.92070340751445 1.22946348554913  C 5.75955478629825 1.22946348554913  5.62891801734104 1.09882671659193  5.62891801734104 0.937678095375723  C 5.62891801734104 0.776529474159519  5.75955478629825 0.645892705202312  5.92070340751445 0.645892705202312  L 8.83855734971098 0.645892705202312  C 8.99970597092719 0.645892705202312  9.13034273988439 0.776529474159519  9.13034273988439 0.937678095375723  C 9.13034273988439 1.09882671659193  8.99970597092719 1.22946348554913  8.83855734971098 1.22946348554913  Z M 1.31049418208092 6.24817227745665  C 1.25662170710395 6.30314880564138  1.18320841936875 6.33461163804813  1.10624439884393 6.33570788439307  C 1.10567878911188 6.33571117369236  1.10511317101091 6.33571281835244  1.10454755171449 6.33571281835244  C 0.943398930498291 6.33571281835244  0.812762161541083 6.20507604939524  0.812762161541083 6.04392742817903  C 0.812762161541083 5.96612406018301  0.843835061079898 5.89154279897622  0.899076768786127 5.83675486416185  L 2.21211105491329 4.5237205982659  C 2.26498150061066 4.47844352903735  2.33229652376764 4.45355896448957  2.40190469157979 4.45355896448957  C 2.563053312796 4.45355896448957  2.6936900817532 4.58419573344678  2.6936900817532 4.74534435466298  C 2.6936900817532 4.81495252247513  2.66880551720543 4.88226754563212  2.62352844797688 4.93513799132948  L 1.31049418208092 6.24817227745665  Z M 11.46052746556 6.04395127908724  C 11.46052746556 6.2035016270089  11.3323751197099 6.33346683004442  11.1728405115607 6.33570788439307  C 11.095283083361 6.33615628977312  11.0207382804224 6.3057084140545  10.9656728815029 6.25109012427745  L 9.65263861560693 4.9380558583815  C 9.60736150592177 4.885185402083  9.58247691684759 4.81787034801321  9.58247691684759 4.74826214583377  C 9.58247691684759 4.58711352461756  9.7131136858048 4.45647675566036  9.874262307021 4.45647675566036  C 9.94387050426454 4.45647675566036  10.0111855538946 4.48136134121201  10.0640560086705 4.52663844508671  L 11.3770902947977 5.83967271098266  C 11.4305705454574 5.89421839877554  11.46052746556 5.96756169035014  11.46052746556 6.04395127908724  Z " fill-rule="nonzero" fill="#ff0505" stroke="none" fill-opacity="0.996078431372549" transform="matrix(1 0 0 1 672 737 )" />
  </g>
</svg>