<?xml version="1.0" encoding="utf-8"?>
<svg version="1.1" xmlns:xlink="http://www.w3.org/1999/xlink" width="13px" height="13px" xmlns="http://www.w3.org/2000/svg">
  <g transform="matrix(1 0 0 1 -672 -731 )">
    <path d="M 11.4646259017341 7.08357078034682  C 11.4614095913183 10.0634870590685  9.04651239142639 12.4783842680112  6.06659611271676 12.4816005895954  C 13.2639691647399 12.4816005895954  -1.13077693930636 12.4816005895954  6.06659611271676 12.4816005895954  C 3.08534658111015 12.4816005895954  0.668566323699421 10.0648203321846  0.668566323699421 7.08357080057804  C 0.668566323699421 4.10232126897142  3.08534658111015 1.6855410115607  6.06659611271676 1.6855410115607  C 9.04784564432337 1.6855410115607  11.4646259017341 4.10232126897142  11.4646259017341 7.08357080057804  Z M 10.8810551213873 7.08357078034682  C 10.8778396042964 4.42595154147143  8.72421535159215 2.27232728876716  6.06659611271676 2.2691117716763  C 3.40764382354255 2.2691117716763  1.25213710404624 4.42461849117261  1.25213710404624 7.08357078034682  C 1.25213710404624 9.74252306952103  3.40764382354255 11.8980297890173  6.06659611271676 11.8980297890173  C 8.72554840189097 11.8980297890173  10.8810551213873 9.74252306952103  10.8810551213873 7.08357078034682  Z M 0.668566303468208 2.70678986705202  C 0.668566303468208 2.86793848826823  0.537929534511 2.99857525722543  0.376780913294798 2.99857525722543  C 0.215632292078595 2.99857525722543  0.0849955231213873 2.86793848826823  0.0849955231213873 2.70678986705202  C 0.0866022753720115 1.65999007330287  0.93480079584622 0.81179155282866  1.98160058959538 0.810184800578035  C 2.14274921639827 0.810184800578035  2.27338598988439 0.940821574064156  2.27338598988439 1.10197020086705  C 2.27338598988439 1.26311882766995  2.14274921639827 1.39375560115607  1.98160058959538 1.39375560115607  C 1.25643176830456 1.39375560115607  0.668566303468208 1.98162106599242  0.668566303468208 2.70678986705202  Z M 11.7564112919075 2.99857525722543  C 11.5952626706913 2.99857525722543  11.4646259017341 2.86793848826823  11.4646259017341 2.70678986705202  C 11.4646259017341 1.98162106599242  10.8767604368978 1.39375560115607  10.1515916358382 1.39375560115607  C 9.99044300903525 1.39375560115607  9.85980623554913 1.26311882766995  9.85980623554913 1.10197020086705  C 9.85980623554913 0.940821574064156  9.99044300903525 0.810184800578035  10.1515916358382 0.810184800578035  C 11.1983914295873 0.81179155282866  12.0465899500615 1.65999007330287  12.0481967023121 2.70678986705202  C 12.0481967023121 2.86793848826823  11.9175599333549 2.99857525722543  11.7564113121387 2.99857525722543  Z " fill-rule="nonzero" fill="#ff0505" stroke="none" fill-opacity="0.996078431372549" transform="matrix(1 0 0 1 672 731 )" />
  </g>
</svg>