<?xml version="1.0" encoding="utf-8"?>
<svg version="1.1" xmlns:xlink="http://www.w3.org/1999/xlink" width="13px" height="13px" xmlns="http://www.w3.org/2000/svg">
  <g transform="matrix(1 0 0 1 -164 -519 )">
    <path d="M 11.387 1.60500000000002  C 10.4927 0.711000000000013  9.0428 0.711000000000013  8.1485 1.60500000000002  L 1.9611 7.79300000000001  C 1.8819 7.87200000000001  1.8255 7.971  1.7976 8.07900000000001  L 0.984400000000001 11.247  C 0.929500000000001 11.461  0.991599999999998 11.688  1.1479 11.844  C 1.3041 12.001  1.5312 12.063  1.7452 12.008  L 4.913 11.195  C 5.0214 11.167  5.1204 11.11  5.1995 11.031  L 11.387 4.84399999999999  C 12.2813 3.94900000000001  12.2813 2.5  11.387 1.60500000000002  Z M 4.4366 10.026  L 2.4579 10.534  L 2.9659 8.55599999999998  L 9.0324 2.48899999999998  C 9.4386 2.08300000000003  10.097 2.08300000000003  10.5031 2.48899999999998  C 10.9093 2.89499999999998  10.9093 3.55399999999997  10.5031 3.95999999999998  L 4.4366 10.026  Z " fill-rule="nonzero" fill="#ffffff" stroke="none" fill-opacity="0.549019607843137" transform="matrix(1 0 0 1 164 519 )" />
  </g>
</svg>