<?xml version="1.0" encoding="utf-8"?>
<svg version="1.1" xmlns:xlink="http://www.w3.org/1999/xlink" width="18px" height="18px" xmlns="http://www.w3.org/2000/svg">
  <g transform="matrix(1 0 0 1 -159 -607 )">
    <path d="M 0.9161 5.65199999999999  C 1.5783 4.053  2.6998 2.68599999999998  4.1388 1.72500000000002  C 5.5777 0.762999999999977  7.2694 0.25  9 0.25  C 11.3206 0.25  13.5462 1.17200000000003  15.1872 2.81299999999999  C 16.8281 4.45400000000001  17.75 6.67899999999997  17.75 9  C 17.75 10.731  17.2368 12.422  16.2754 13.861  C 15.3139 15.3  13.9473 16.422  12.3485 17.084  C 10.7496 17.746  8.9903 17.919  7.293 17.582  C 5.5956 17.244  4.0365 16.411  2.8128 15.187  C 1.5891 13.963  0.755800000000001 12.404  0.418099999999999 10.707  C 0.0805000000000007 9.00999999999999  0.253799999999998 7.25  0.9161 5.65199999999999  Z M 2.0709 11.87  C 2.6386 13.241  3.5999 14.412  4.8332 15.236  C 6.0666 16.06  7.5166 16.5  9 16.5  C 10.9891 16.5  12.8968 15.71  14.3033 14.303  C 15.7098 12.897  16.5 10.989  16.5 9  C 16.5 7.517  16.0601 6.06700000000001  15.236 4.83300000000003  C 14.4119 3.60000000000002  13.2406 2.63900000000001  11.8701 2.07100000000003  C 10.4997 1.50299999999999  8.9917 1.35500000000002  7.5368 1.64400000000001  C 6.082 1.93299999999999  4.7456 2.64800000000002  3.6967 3.697  C 2.6478 4.74599999999998  1.9335 6.08199999999999  1.6441 7.53699999999998  C 1.3547 8.99200000000002  1.5033 10.5  2.0709 11.87  Z " fill-rule="nonzero" fill="#ffffff" stroke="none" fill-opacity="0.549019607843137" transform="matrix(1 0 0 1 159 607 )" />
  </g>
</svg>