<?xml version="1.0" encoding="utf-8"?>
<svg version="1.1" xmlns:xlink="http://www.w3.org/1999/xlink" width="8px" height="8px" xmlns="http://www.w3.org/2000/svg">
  <g transform="matrix(1 0 0 1 -164 -566 )">
    <path d="M 4 0.299999999999955  C 5.9192 0.299999999999955  7.475 1.85599999999999  7.475 3.77499999999998  C 7.475 5.69399999999996  5.9192 7.25  4 7.25  C 2.0808 7.25  0.524999999999999 5.69399999999996  0.524999999999999 3.77499999999998  C 0.524999999999999 1.85599999999999  2.0808 0.299999999999955  4 0.299999999999955  Z M 4 6  C 5.2288 6  6.225 5.00400000000002  6.225 3.77499999999998  C 6.225 2.54600000000005  5.2288 1.54999999999995  4 1.54999999999995  C 2.7711 1.54999999999995  1.775 2.54600000000005  1.775 3.77499999999998  C 1.775 5.00400000000002  2.7711 6  4 6  Z " fill-rule="nonzero" fill="#ffffff" stroke="none" fill-opacity="0.549019607843137" transform="matrix(1 0 0 1 164 566 )" />
  </g>
</svg>