<?xml version="1.0" encoding="utf-8"?>
<svg version="1.1" xmlns:xlink="http://www.w3.org/1999/xlink" width="18px" height="18px" xmlns="http://www.w3.org/2000/svg">
  <g transform="matrix(1 0 0 1 -159 -563 )">
    <path d="M 0.25 9  C 0.25 4.16800000000001  4.1675 0.25  9 0.25  C 13.8325 0.25  17.75 4.16800000000001  17.75 9  C 17.75 13.379  14.5326 17.0069999999999  10.3325 17.649  C 9.8981 17.716  9.453 17.75  9 17.75  C 6.6819 17.75  4.5743 16.849  3.0087 15.377  C 1.3106 13.7809999999999  0.25 11.514  0.25 9  Z M 4.1259 14.7  C 5.1634 15.588  6.4463 16.198  7.8588 16.414  C 8.1155 16.453  8.3757 16.479  8.6385 16.491  L 9 16.5  C 10.6816 16.5  12.234 15.947  13.4849 15.0119999999999  C 13.6058 14.921  13.7241 14.827  13.8398 14.729  L 13.9263 14.651  L 13.9172 14.609  C 13.6497 13.597  12.7632 12.838  11.691 12.7569999999999  L 11.5 12.75  L 6.5 12.75  C 5.3731 12.75  4.4139 13.498  4.1056 14.5069999999999  L 4.0675 14.649  L 4.1259 14.7  Z M 11.5 11.5  C 12.9964 11.5  14.288 12.376  14.8897 13.644  C 15.8981 12.367  16.5 10.754  16.5 9  C 16.5 4.85799999999995  13.1421 1.5  9 1.5  C 4.8579 1.5  1.5 4.85799999999995  1.5 9  C 1.5 10.754  2.1019 12.367  3.1103 13.644  C 3.712 12.376  5.0036 11.5  6.5 11.5  L 11.5 11.5  Z " fill-rule="nonzero" fill="#ffffff" stroke="none" fill-opacity="0.549019607843137" transform="matrix(1 0 0 1 159 563 )" />
  </g>
</svg>