<?xml version="1.0" encoding="utf-8"?>
<svg version="1.1" xmlns:xlink="http://www.w3.org/1999/xlink" width="303px" height="43px" xmlns="http://www.w3.org/2000/svg">
  <g transform="matrix(1 0 0 1 -10282 -1605 )">
    <path d="M 10283 1608  A 2 2 0 0 1 10285 1606 L 10582 1606  A 2 2 0 0 1 10584 1608 L 10584 1645  A 2 2 0 0 1 10582 1647 L 10285 1647  A 2 2 0 0 1 10283 1645 L 10283 1608  Z " fill-rule="nonzero" fill="#ffffff" stroke="none" />
    <path d="M 10282.5 1608  A 2.5 2.5 0 0 1 10285 1605.5 L 10582 1605.5  A 2.5 2.5 0 0 1 10584.5 1608 L 10584.5 1645  A 2.5 2.5 0 0 1 10582 1647.5 L 10285 1647.5  A 2.5 2.5 0 0 1 10282.5 1645 L 10282.5 1608  Z " stroke-width="1" stroke="#000000" fill="none" stroke-opacity="0.847058823529412" />
  </g>
</svg>