<?xml version="1.0" encoding="utf-8"?>
<svg version="1.1" xmlns:xlink="http://www.w3.org/1999/xlink" width="120px" height="43px" xmlns="http://www.w3.org/2000/svg">
  <g transform="matrix(1 0 0 1 -10825 -1540 )">
    <path d="M 10826 1543  A 2 2 0 0 1 10828 1541 L 10942 1541  A 2 2 0 0 1 10944 1543 L 10944 1580  A 2 2 0 0 1 10942 1582 L 10828 1582  A 2 2 0 0 1 10826 1580 L 10826 1543  Z " fill-rule="nonzero" fill="#ffffff" stroke="none" />
    <path d="M 10825.5 1543  A 2.5 2.5 0 0 1 10828 1540.5 L 10942 1540.5  A 2.5 2.5 0 0 1 10944.5 1543 L 10944.5 1580  A 2.5 2.5 0 0 1 10942 1582.5 L 10828 1582.5  A 2.5 2.5 0 0 1 10825.5 1580 L 10825.5 1543  Z " stroke-width="1" stroke="#000000" fill="none" stroke-opacity="0.847058823529412" />
  </g>
</svg>