<?xml version="1.0" encoding="utf-8"?>
<svg version="1.1" xmlns:xlink="http://www.w3.org/1999/xlink" width="56px" height="24px" xmlns="http://www.w3.org/2000/svg">
  <g transform="matrix(1 0 0 1 -11581 -1468 )">
    <path d="M 11582 1471  A 2 2 0 0 1 11584 1469 L 11634 1469  A 2 2 0 0 1 11636 1471 L 11636 1489  A 2 2 0 0 1 11634 1491 L 11584 1491  A 2 2 0 0 1 11582 1489 L 11582 1471  Z " fill-rule="nonzero" fill="#dcdcdc" stroke="none" />
    <path d="M 11581.5 1471  A 2.5 2.5 0 0 1 11584 1468.5 L 11634 1468.5  A 2.5 2.5 0 0 1 11636.5 1471 L 11636.5 1489  A 2.5 2.5 0 0 1 11634 1491.5 L 11584 1491.5  A 2.5 2.5 0 0 1 11581.5 1489 L 11581.5 1471  Z " stroke-width="1" stroke="#000000" fill="none" stroke-opacity="0.847058823529412" />
  </g>
</svg>