<?xml version="1.0" encoding="utf-8"?>
<svg version="1.1" xmlns:xlink="http://www.w3.org/1999/xlink" width="23px" height="21px" xmlns="http://www.w3.org/2000/svg">
  <g transform="matrix(1 0 0 1 -752 -597 )">
    <path d="M 22 17.5321686474609  C 22.4386023974609 19.3371409326172  20.9687552490234 20.8128674658203  19.1579035791016 20.8128674658203  L 3.84797580566406 20.8128674658203  C 2.03712413574219 20.8128674658203  0.567276987304687 19.3430203173828  1 17.5321686474609  L 1 1.11103643554688  C 0.567276987304687 0.505459428710939  1.05526623046875 0.0174701513671884  1.66084327148438 0.0174701513671884  C 2.2664203125 0.0174701513671884  2.75440955566406 0.505459394531252  3 1.11103643554688  L 3 17.5321686474609  C 2.75440955566406 18.1377456542969  3.24827818359375 18.6257349316406  3.84797583984375 18.6257349316406  L 19.1637829980469 18.6257349316406  C 19.7693600048828 18.6257349316406  20.2573492822266 18.1377456884766  20 17.5321686474609  L 20 1.15219216308594  C 20.2573492480469 0.546615156250001  20.7453384912109 0.0586258789062502  21.3509155322266 0.0586258789062502  C 21.9564925732422 0.0586258789062502  22.4444818164063 0.546615122070314  22 1.15219216308594  L 22 17.5321686474609  Z " fill-rule="nonzero" fill="#000000" stroke="none" fill-opacity="0.392156862745098" transform="matrix(1 0 0 1 752 597 )" />
  </g>
</svg>