<?xml version="1.0" encoding="utf-8"?>
<svg version="1.1" xmlns:xlink="http://www.w3.org/1999/xlink" width="31px" height="8px" xmlns="http://www.w3.org/2000/svg">
  <g transform="matrix(1 0 0 1 -748 -587 )">
    <path d="M 30.8128674658203 6.74853017089844  C 30.8128674658203 6.14295312988281  30.3248782226562 5.65496388671875  29.7193011816406 5.65496388671875  L 24.2514698291016 5.65496388671875  L 24.2514698632813 3.46783135253906  C 24.2514698632813 1.65697968261719  22.7933815185547 0.187132534179687  20.9942886181641 0.187132534179687  L 10.0292289550781 0.187132534179688  C 8.21837728515625 0.187132534179688  6.74853013671875 1.65697968261719  6.74853013671875 3.46783135253906  L 6.74853013671875 5.65496388671875  L 1.28069878417969 5.65496388671875  C 0.675121777343751 5.65496388671875  0.187132500000001 6.14295312988281  0.187132500000001 6.74853017089844  C 0.187132500000001 7.35410721191406  0.675121743164063 7.84209645507812  1.28069878417969 7.84209645507812  L 29.7193011816406 7.84209645507812  C 30.3248781884766 7.84209645507812  30.8128674658203 7.35410721191406  30.8128674658203 6.74853017089844  Z M 8.93566270507812 3.46783135253906  C 8.93566270507812 2.86813373046875  9.42953133300781 2.37426506835937  10.0292289892578 2.37426506835937  L 20.9942886181641 2.37426506835937  C 21.5939862402344 2.37426506835937  22.0643373291016 2.85637492675781  22.0643373291016 3.46783135253906  L 22.0643373291016 5.65496388671875  L 8.93566270507812 5.65496388671875  L 8.93566270507812 3.46783135253906  Z " fill-rule="nonzero" fill="#000000" stroke="none" fill-opacity="0.392156862745098" transform="matrix(1 0 0 1 748 587 )" />
  </g>
</svg>