<?xml version="1.0" encoding="utf-8"?>
<svg version="1.1" xmlns:xlink="http://www.w3.org/1999/xlink" width="129px" height="32px" xmlns="http://www.w3.org/2000/svg">
  <defs>
    <mask fill="white" id="clip248">
      <path d="M 0 28  L 0 4  C 0 1.76000000000022  0.860000000000107 0  1.95454545454545 0  L 8.55113636363636 0  L 127.045454545455 0  C 128.14 0  129 1.76000000000022  129 4  L 129 28  C 129 30.2399999999998  128.14 32  127.045454545455 32  L 1.95454545454545 32  C 0.860000000000107 32  0 30.2399999999998  0 28  Z " fill-rule="evenodd" />
    </mask>
  </defs>
  <g transform="matrix(1 0 0 1 -1457 -587 )">
    <path d="M 0 28  L 0 4  C 0 1.76000000000022  0.860000000000107 0  1.95454545454545 0  L 8.55113636363636 0  L 127.045454545455 0  C 128.14 0  129 1.76000000000022  129 4  L 129 28  C 129 30.2399999999998  128.14 32  127.045454545455 32  L 1.95454545454545 32  C 0.860000000000107 32  0 30.2399999999998  0 28  Z " fill-rule="nonzero" fill="#ffffff" stroke="none" transform="matrix(1 0 0 1 1457 587 )" />
    <path d="M 0 28  L 0 4  C 0 1.76000000000022  0.860000000000107 0  1.95454545454545 0  L 8.55113636363636 0  L 127.045454545455 0  C 128.14 0  129 1.76000000000022  129 4  L 129 28  C 129 30.2399999999998  128.14 32  127.045454545455 32  L 1.95454545454545 32  C 0.860000000000107 32  0 30.2399999999998  0 28  Z " stroke-width="2" stroke="#d9d9d9" fill="none" transform="matrix(1 0 0 1 1457 587 )" mask="url(#clip248)" />
  </g>
</svg>